$MeshFormat
4.1 0 8
$EndMeshFormat
$PhysicalNames
1
2 1 "domain"
$EndPhysicalNames
$Entities
0 0 1 0
1 0.10000000149011612 0.10000000149011612 0 0.8999999761581421 0.8999999761581421 0 1 1 0 0
$EndEntities
$Nodes
1 97 1 97
2 1 0 97
1
2
3
4
5
6
7
8
9
10
11
12
13
14
15
16
17
18
19
20
21
22
23
24
25
26
27
28
29
30
31
32
33
34
35
36
37
38
39
40
41
42
43
44
45
46
47
48
49
50
51
52
53
54
55
56
57
58
59
60
61
62
63
64
65
66
67
68
69
70
71
72
73
74
75
76
77
78
79
80
81
82
83
84
85
86
87
88
89
90
91
92
93
94
95
96
97
0.5 0.5 0
0.5666666626930237 0.5 0
0.5615919828414917 0.5255122184753418 0
0.5471404790878296 0.5471404790878296 0
0.5255122184753418 0.5615919828414917 0
0.5 0.5666666626930237 0
0.4744877815246582 0.5615919828414917 0
0.4528595507144928 0.5471404790878296 0
0.4384080171585083 0.5255122184753418 0
0.4333333373069763 0.5 0
0.4384080171585083 0.4744877815246582 0
0.4528595507144928 0.4528595507144928 0
0.4744877815246582 0.4384080171585083 0
0.5 0.4333333373069763 0
0.5255122184753418 0.4384080171585083 0
0.5471404790878296 0.4528595507144928 0
0.5615919828414917 0.4744877815246582 0
0.6333333253860474 0.5 0
0.6231839656829834 0.5510244369506836 0
0.5942808985710144 0.5942808985710144 0
0.5510244369506836 0.6231839656829834 0
0.5 0.6333333253860474 0
0.448975533246994 0.6231839656829834 0
0.4057191014289856 0.5942808985710144 0
0.376816064119339 0.5510244369506836 0
0.36666667461395264 0.5 0
0.376816064119339 0.448975533246994 0
0.4057191014289856 0.4057191014289856 0
0.448975533246994 0.376816064119339 0
0.5 0.36666667461395264 0
0.5510244369506836 0.376816064119339 0
0.5942808985710144 0.4057191014289856 0
0.6231839656829834 0.448975533246994 0
0.699999988079071 0.5 0
0.6847758889198303 0.5765367150306702 0
0.641421377658844 0.641421377658844 0
0.5765367150306702 0.6847758889198303 0
0.5 0.699999988079071 0
0.4234633147716522 0.6847758889198303 0
0.3585786521434784 0.641421377658844 0
0.3152240812778473 0.5765367150306702 0
0.30000001192092896 0.5 0
0.3152240812778473 0.4234633147716522 0
0.3585786521434784 0.3585786521434784 0
0.4234633147716522 0.3152240812778473 0
0.5 0.30000001192092896 0
0.5765367150306702 0.3152240812778473 0
0.641421377658844 0.3585786521434784 0
0.6847758889198303 0.4234633147716522 0
0.7666666507720947 0.5 0
0.746367871761322 0.602048933506012 0
0.6885617971420288 0.6885617971420288 0
0.602048933506012 0.746367871761322 0
0.5 0.7666666507720947 0
0.3979510962963104 0.746367871761322 0
0.3114382028579712 0.6885617971420288 0
0.253632128238678 0.602048933506012 0
0.23333333432674408 0.5 0
0.253632128238678 0.3979510962963104 0
0.3114382028579712 0.3114382028579712 0
0.3979510962963104 0.253632128238678 0
0.5 0.23333333432674408 0
0.602048933506012 0.253632128238678 0
0.6885617971420288 0.3114382028579712 0
0.746367871761322 0.3979510962963104 0
0.8333333134651184 0.5 0
0.8079598546028137 0.6275611519813538 0
0.7357022762298584 0.7357022762298584 0
0.6275611519813538 0.8079598546028137 0
0.5 0.8333333134651184 0
0.37243884801864624 0.8079598546028137 0
0.264297753572464 0.7357022762298584 0
0.19204016029834747 0.6275611519813538 0
0.1666666716337204 0.5 0
0.19204016029834747 0.37243884801864624 0
0.264297753572464 0.264297753572464 0
0.37243884801864624 0.19204016029834747 0
0.5 0.1666666716337204 0
0.6275611519813538 0.19204016029834747 0
0.7357022762298584 0.264297753572464 0
0.8079598546028137 0.37243884801864624 0
0.8999999761581421 0.5 0
0.8695518374443054 0.6530733704566956 0
0.7828426957130432 0.7828426957130432 0
0.6530733704566956 0.8695518374443054 0
0.5 0.8999999761581421 0
0.34692662954330444 0.8695518374443054 0
0.2171572893857956 0.7828426957130432 0
0.13044819235801697 0.6530733704566956 0
0.10000000149011612 0.5 0
0.13044819235801697 0.34692662954330444 0
0.2171572893857956 0.2171572893857956 0
0.34692662954330444 0.13044819235801697 0
0.5 0.10000000149011612 0
0.6530733704566956 0.13044819235801697 0
0.7828426957130432 0.2171572893857956 0
0.8695518374443054 0.34692662954330444 0
$EndNodes
$Elements
1 176 1 176
2 1 2 176
1 1 2 3
2 1 3 4
3 1 4 5
4 1 5 6
5 1 6 7
6 1 7 8
7 1 8 9
8 1 9 10
9 1 10 11
10 1 11 12
11 1 12 13
12 1 13 14
13 1 14 15
14 1 15 16
15 1 16 17
16 1 17 2
17 2 18 3
18 18 19 3
19 3 19 4
20 19 20 4
21 4 20 5
22 20 21 5
23 5 21 6
24 21 22 6
25 6 22 7
26 22 23 7
27 7 23 8
28 23 24 8
29 8 24 9
30 24 25 9
31 9 25 10
32 25 26 10
33 10 26 11
34 26 27 11
35 11 27 12
36 27 28 12
37 12 28 13
38 28 29 13
39 13 29 14
40 29 30 14
41 14 30 15
42 30 31 15
43 15 31 16
44 31 32 16
45 16 32 17
46 32 33 17
47 17 33 2
48 33 18 2
49 18 34 19
50 34 35 19
51 19 35 20
52 35 36 20
53 20 36 21
54 36 37 21
55 21 37 22
56 37 38 22
57 22 38 23
58 38 39 23
59 23 39 24
60 39 40 24
61 24 40 25
62 40 41 25
63 25 41 26
64 41 42 26
65 26 42 27
66 42 43 27
67 27 43 28
68 43 44 28
69 28 44 29
70 44 45 29
71 29 45 30
72 45 46 30
73 30 46 31
74 46 47 31
75 31 47 32
76 47 48 32
77 32 48 33
78 48 49 33
79 33 49 18
80 49 34 18
81 34 50 35
82 50 51 35
83 35 51 36
84 51 52 36
85 36 52 37
86 52 53 37
87 37 53 38
88 53 54 38
89 38 54 39
90 54 55 39
91 39 55 40
92 55 56 40
93 40 56 41
94 56 57 41
95 41 57 42
96 57 58 42
97 42 58 43
98 58 59 43
99 43 59 44
100 59 60 44
101 44 60 45
102 60 61 45
103 45 61 46
104 61 62 46
105 46 62 47
106 62 63 47
107 47 63 48
108 63 64 48
109 48 64 49
110 64 65 49
111 49 65 34
112 65 50 34
113 50 66 51
114 66 67 51
115 51 67 52
116 67 68 52
117 52 68 53
118 68 69 53
119 53 69 54
120 69 70 54
121 54 70 55
122 70 71 55
123 55 71 56
124 71 72 56
125 56 72 57
126 72 73 57
127 57 73 58
128 73 74 58
129 58 74 59
130 74 75 59
131 59 75 60
132 75 76 60
133 60 76 61
134 76 77 61
135 61 77 62
136 77 78 62
137 62 78 63
138 78 79 63
139 63 79 64
140 79 80 64
141 64 80 65
142 80 81 65
143 65 81 50
144 81 66 50
145 66 82 67
146 82 83 67
147 67 83 68
148 83 84 68
149 68 84 69
150 84 85 69
151 69 85 70
152 85 86 70
153 70 86 71
154 86 87 71
155 71 87 72
156 87 88 72
157 72 88 73
158 88 89 73
159 73 89 74
160 89 90 74
161 74 90 75
162 90 91 75
163 75 91 76
164 91 92 76
165 76 92 77
166 92 93 77
167 77 93 78
168 93 94 78
169 78 94 79
170 94 95 79
171 79 95 80
172 95 96 80
173 80 96 81
174 96 97 81
175 81 97 66
176 97 82 66
$EndElements
