NDIME= 2
NELEM= 369
5 11 128 10 0
5 10 128 66 1
5 85 183 145 2
5 31 116 72 3
5 171 173 79 4
5 7 184 64 5
5 140 168 76 6
5 164 167 165 7
5 64 184 139 8
5 11 152 128 9
5 33 116 31 10
5 134 165 86 11
5 88 183 85 12
5 94 127 95 13
5 134 173 171 14
5 75 203 178 15
5 65 129 68 16
5 145 161 85 17
5 165 167 86 18
5 4 160 71 19
5 176 179 143 20
5 94 143 127 21
5 157 198 169 22
5 186 198 157 23
5 102 149 147 24
5 150 151 115 25
5 202 203 89 26
5 123 203 202 27
5 101 166 131 28
5 122 151 150 29
5 98 102 101 30
5 163 167 164 31
5 86 173 134 32
5 136 208 115 33
5 168 193 76 34
5 92 144 94 35
5 15 89 14 36
5 131 181 101 37
5 95 127 98 38
5 125 174 16 39
5 144 176 143 40
5 111 208 133 41
5 68 129 81 42
5 116 202 72 43
5 133 207 111 44
5 81 129 92 45
5 13 75 12 46
5 98 127 102 47
5 4 71 3 48
5 16 200 125 49
5 115 151 136 50
5 51 130 55 51
5 20 76 19 52
5 146 203 75 53
5 65 153 129 54
5 81 92 91 55
5 107 182 172 56
5 10 66 9 57
5 92 94 93 58
5 133 208 136 59
5 22 63 21 60
5 76 191 140 61
5 7 64 6 62
5 52 130 51 63
5 53 195 143 64
5 27 77 26 65
5 25 61 24 66
5 110 111 109 67
5 105 109 88 68
5 135 185 77 69
5 98 101 99 70
5 89 146 14 71
5 18 193 126 72
5 95 98 97 73
5 70 180 59 74
5 92 205 144 75
5 12 152 11 76
5 59 180 130 77
5 160 206 71 78
5 1 134 0 79
5 75 152 12 80
5 114 115 112 81
5 126 189 18 82
5 92 93 91 83
5 13 146 75 84
5 172 182 29 85
5 8 184 7 86
5 102 166 101 87
5 1 165 134 88
5 157 190 63 89
5 125 187 175 90
5 105 110 109 91
5 39 138 38 92
5 126 193 168 93
5 130 131 55 94
5 79 197 171 95
5 98 99 97 96
5 94 95 93 97
5 120 151 122 98
5 175 202 89 99
5 154 191 76 100
5 142 148 57 101
5 102 195 149 102
5 110 112 111 103
5 5 160 4 104
5 140 188 168 105
5 38 138 56 106
5 132 136 57 107
5 101 103 99 108
5 15 174 89 109
5 147 166 102 110
5 109 183 88 111
5 143 195 127 112
5 20 154 76 113
5 81 91 90 114
5 61 185 137 115
5 68 81 80 116
5 77 185 162 117
5 178 204 75 118
5 112 208 111 119
5 2 165 1 120
5 63 154 21 121
5 134 171 0 122
5 77 162 26 123
5 48 53 47 124
5 136 142 57 125
5 71 164 3 126
5 54 205 153 127
5 94 144 143 128
5 25 162 61 129
5 63 186 157 130
5 38 56 37 131
5 45 54 44 132
5 111 192 109 133
5 104 105 88 134
5 51 55 50 135
5 50 147 49 136
5 62 148 118 137
5 95 97 96 138
5 175 187 72 139
5 40 58 39 140
5 87 88 85 141
5 37 132 36 142
5 36 57 35 143
5 101 181 103 144
5 49 149 48 145
5 34 62 33 146
5 41 145 40 147
5 137 169 61 148
5 34 148 62 149
5 56 132 37 150
5 32 60 42 151
5 74 85 60 152
5 125 175 174 153
5 36 132 57 154
5 118 148 142 155
5 83 84 70 156
5 100 137 96 157
5 120 122 121 158
5 14 146 13 159
5 103 140 108 160
5 164 165 2 161
5 58 138 39 162
5 113 114 112 163
5 64 209 6 164
5 31 59 52 165
5 141 210 150 166
5 35 148 34 167
5 43 65 32 168
5 66 210 141 169
5 114 150 115 170
5 143 179 53 171
5 57 148 35 172
5 127 195 102 173
5 155 185 135 174
5 139 141 114 175
5 56 133 132 176
5 0 171 30 177
5 118 142 120 178
5 123 202 116 179
5 91 135 90 180
5 61 198 24 181
5 97 100 96 182
5 133 136 132 183
5 27 177 77 184
5 3 164 2 185
5 95 96 93 186
5 44 153 43 187
5 103 108 99 188
5 115 208 112 189
5 129 205 92 190
5 110 113 112 191
5 16 174 15 192
5 81 90 80 193
5 104 106 105 194
5 62 118 117 195
5 54 176 144 196
5 141 150 114 197
5 118 120 119 198
5 87 104 88 199
5 113 139 114 200
5 137 185 155 201
5 122 128 121 202
5 21 154 20 203
5 100 169 137 204
5 30 172 29 205
5 106 160 159 206
5 156 157 100 207
5 26 162 25 208
5 42 161 41 209
5 28 177 27 210
5 46 176 45 211
5 23 198 186 212
5 74 87 85 213
5 128 210 66 214
5 48 149 53 215
5 55 147 50 216
5 76 193 19 217
5 59 130 52 218
5 84 180 70 219
5 87 163 104 220
5 19 193 18 221
5 82 125 124 222
5 31 72 69 223
5 91 155 135 224
5 136 151 142 225
5 153 205 129 226
5 147 149 49 227
5 47 179 46 228
5 29 182 28 229
5 40 145 58 230
5 62 116 33 231
5 22 186 63 232
5 68 80 78 233
5 120 121 119 234
5 72 202 175 235
5 97 156 100 236
5 93 155 91 237
5 9 201 8 238
5 137 155 96 239
5 106 159 158 240
5 66 201 9 241
5 23 186 22 242
5 89 203 146 243
5 159 209 64 244
5 99 156 97 245
5 106 158 105 246
5 78 79 67 247
5 128 152 121 248
5 53 179 47 249
5 32 73 60 250
5 162 185 61 251
5 54 153 44 252
5 118 119 117 253
5 105 158 110 254
5 45 176 54 255
5 142 151 120 256
5 130 180 131 257
5 124 126 83 258
5 157 169 100 259
5 85 161 60 260
5 106 206 160 261
5 65 68 67 262
5 111 207 192 263
5 117 123 116 264
5 177 182 170 265
5 68 78 67 266
5 96 155 93 267
5 80 107 78 268
5 62 117 116 269
5 82 83 70 270
5 108 156 99 271
5 83 168 84 272
5 73 74 60 273
5 17 200 16 274
5 82 187 125 275
5 77 194 135 276
5 56 207 133 277
5 43 153 65 278
5 41 161 145 279
5 69 70 59 280
5 73 86 74 281
5 65 67 32 282
5 163 164 71 283
5 180 181 131 284
5 169 198 61 285
5 110 158 113 286
5 131 166 55 287
5 31 69 59 288
5 69 82 70 289
5 46 179 176 290
5 82 124 83 291
5 55 166 147 292
5 192 207 138 293
5 174 175 89 294
5 126 168 83 295
5 90 170 80 296
5 18 189 17 297
5 139 199 64 298
5 60 161 42 299
5 87 167 163 300
5 74 167 87 301
5 63 191 154 302
5 144 205 54 303
5 171 172 30 304
5 6 209 5 305
5 73 173 86 306
5 28 182 177 307
5 24 198 23 308
5 145 183 58 309
5 8 201 184 310
5 139 184 141 311
5 152 204 121 312
5 171 197 172 313
5 80 170 107 314
5 170 182 107 315
5 113 199 139 316
5 103 188 140 317
5 86 167 74 318
5 135 194 90 319
5 141 201 66 320
5 84 181 180 321
5 119 178 117 322
5 190 191 63 323
5 117 178 123 324
5 168 188 84 325
5 122 210 128 326
5 79 196 67 327
5 75 204 152 328
5 163 206 104 329
5 156 190 157 330
5 138 207 56 331
5 140 191 108 332
5 172 197 107 333
5 58 192 138 334
5 107 197 78 335
5 159 199 158 336
5 160 209 159 337
5 108 191 190 338
5 183 192 58 339
5 170 194 177 340
5 124 189 126 341
5 73 196 173 342
5 72 187 69 343
5 149 195 53 344
5 108 190 156 345
5 173 196 79 346
5 121 204 119 347
5 84 188 181 348
5 119 204 178 349
5 78 197 79 350
5 69 187 82 351
5 104 206 106 352
5 71 206 163 353
5 125 200 124 354
5 90 194 170 355
5 184 201 141 356
5 32 196 73 357
5 177 194 77 358
5 158 199 113 359
5 64 199 159 360
5 67 196 32 361
5 5 209 160 362
5 150 210 122 363
5 124 200 189 364
5 181 188 103 365
5 178 203 123 366
5 109 192 183 367
5 189 200 17 368
NPOIN= 211
1.5 -1.224606353822377e-16 0
1.479529941252494 0.2012985200886601 1
1.418957811620231 0.3943558551133186 2
1.320763441207276 0.5712682150947923 3
1.188966919075687 0.7247927872291199 4
1.028964010326962 0.8486442574947509 5
0.8473052528448203 0.9377521321470804 6
0.6514277775045767 0.9884683243281114 7
0.4493508311612874 0.9987165071710528 8
0.2493474677412796 0.9680771188662043 9
0.05960584844236561 0.8978045395707416 10
-0.1121059825476629 0.7907757369376985 11
-0.2587581226927909 0.6513724827222223 12
-0.3743466161445821 0.485301962531081 13
-0.4541392564000488 0.299363122973358 14
-0.4948693233918952 0.1011683219874323 15
-0.4948693233918952 -0.101168321987432 16
-0.4541392564000489 -0.2993631229733578 17
-0.3743466161445822 -0.4853019625310808 18
-0.2587581226927911 -0.651372482722222 19
-0.1121059825476627 -0.7907757369376986 20
0.05960584844236577 -0.8978045395707417 21
0.2493474677412795 -0.9680771188662043 22
0.4493508311612873 -0.9987165071710528 23
0.6514277775045767 -0.9884683243281114 24
0.8473052528448203 -0.9377521321470804 25
1.028964010326962 -0.848644257494751 26
1.188966919075686 -0.72479278722912 27
1.320763441207276 -0.5712682150947924 28
1.418957811620231 -0.3943558551133187 29
1.479529941252494 -0.2012985200886603 30
0 0 31
1 0 32
0.06708049366870932 0.06405308615737727 33
0.156189891894619 0.09871293000655171 34
0.2497659931255264 0.1188026976049786 35
0.3450603151092546 0.1279344506986053 36
0.4407931767450519 0.127315981721491 37
0.5359613777913874 0.1169324559456971 38
0.6294982093277819 0.09653889035303201 39
0.7215200417416084 0.07000197997689731 40
0.8134589109845394 0.04316984484696931 41
0.9061846066927706 0.01922502140275191 42
0.9086080628011721 0.00626483350237071 43
0.8170837101104029 0.01014397877709949 44
0.7254917114631328 0.01180938674143976 45
0.6338846386997996 0.01155713350208008 46
0.5423026107875635 0.009399854339685187 47
0.4507751340929148 0.005556977761901667 48
0.3593003457277026 0.0006053361980974637 49
0.2678597294787989 -0.004946471700207756 50
0.1764183583661779 -0.01048526882028449 51
0.08490915413100564 -0.01468860204135722 52
0.5052222770458095 -0.06868700618990668 53
0.75809936127359 -0.06757176846027865 54
0.2236760640503956 -0.09084037291954103 55
0.4968697889683344 0.2012729250300711 56
0.2898652790466805 0.2092566333930742 57
0.6984862601168659 0.1629480614560787 58
0.03275188103885518 -0.09023476978459866 59
0.9677537698019119 0.09509406267363067 60
0.7066449855147179 -0.7974409416220859 61
0.08552964005117047 0.1628502119042021 62
0.2181513861811594 -0.7754270402762329 63
0.7054978222582109 0.8082968156576892 64
0.9488785264370532 -0.07601532256407162 65
0.2204546218431263 0.7900023154872765 66
1.049253631977403 -0.08841190293532807 67
0.9835261704061209 -0.1815393700687762 68
-0.06031157628180628 -0.06807748939841604 69
-0.02649735931301322 -0.1741661297781843 70
1.137676598441483 0.5544873019363081 71
-0.09467887741619974 0.02312389827063379 72
1.070157574427491 0.07658740982761245 73
1.035433247365825 0.1810304325779335 74
-0.1903472881627321 0.4402176122319212 75
-0.05384816060727771 -0.5992677907874518 76
0.9908725727307366 -0.6573541126489654 77
1.104227973358704 -0.1867142551229297 78
1.165696208558664 -0.08633728100522528 79
1.037390000996989 -0.29576845764703 80
0.9042759468402438 -0.2830462853532439 81
-0.1421615766996197 -0.1512681038797324 82
-0.1024310379735336 -0.270295713470508 83
0.02076198852185118 -0.2824248255699874 84
0.8997402094864588 0.193249201413456 85
1.171940742845135 0.1523696704907951 86
0.9898194916592916 0.2951778246870728 87
0.8556063811841432 0.3156811980526598 88
-0.3028625573441592 0.1649924497676143 89
0.9588836167350652 -0.4049889478265224 90
0.8218248939507362 -0.3886626717156594 91
0.7673898544582176 -0.2491646371481673 92
0.6870305982517126 -0.3656234922098526 93
0.6302217970091863 -0.2454336863856758 94
0.5492611652597612 -0.3452671350633227 95
0.6016913971497243 -0.4768925662160851 96
0.4625510753716154 -0.4512055977447544 97
0.4139603917219093 -0.3198205057153845 98
0.3246070064241524 -0.4238923157703779 99
0.5123086902894864 -0.5910841780400977 100
0.2721446833620287 -0.281215040727204 101
0.3776287953938261 -0.1836126300033966 102
0.1895560528720138 -0.4011690304174837 103
0.9437647503186446 0.4167707577233091 104
0.8053322174892541 0.4347334982519315 105
0.8849245695829958 0.5508178025309317 106
1.171644249077945 -0.2948631023460185 107
0.2316555711054189 -0.5330796588784416 108
0.7271958063864201 0.3352549752394818 109
0.66946947544235 0.4483347238442651 110
0.5818110785953364 0.3491947656147917 111
0.5292820312111645 0.4683897068444191 112
0.6086214701823989 0.5734882848025235 113
0.4643134838064588 0.5881346767860017 114
0.3869368797121706 0.459229664803078 115
-0.0276680255081061 0.1112044867819465 116
-7.228702617956273e-05 0.2328216570796453 117
0.1118424566616933 0.2702229600845553 118
0.02698924217123411 0.3560985750370089 119
0.1458845083562795 0.394509024091009 120
0.05049662300097513 0.4939755488923434 121
0.182047348124744 0.5304021228793524 122
-0.09126630382124246 0.2050190504042003 123
-0.232995094023147 -0.2434012088615921 124
-0.2823576630322576 -0.09757375074676862 125
-0.186530870253417 -0.3832036699680072 126
0.4983430267127336 -0.2238989010953812 127
0.07741865497691536 0.66848497855745 128
0.8729341762617417 -0.1680192749163678 129
0.1303022767620677 -0.09693489548349807 130
0.182799982775452 -0.1810278862025733 131
0.3934623393248254 0.2105297603824044 132
0.4714117945868351 0.287550805814234 133
1.328399534911536 0.0842399990748896 134
0.8847558754061352 -0.519864146056771 135
0.3575099510333876 0.3248605418091092 136
0.6528218836007912 -0.6237478564443085 137
0.5985105717129727 0.1811684249758563 138
0.5563667693084169 0.7025034384277297 139
0.08513654614167104 -0.4983239488894677 140
0.3705187657806074 0.7171425468406203 141
0.225834681403243 0.3003451095756769 142
0.5821278484406045 -0.1472361041210118 143
0.6925958755912441 -0.1473104769692578 144
0.7968600103489825 0.1347584245656657 145
-0.3031202868169945 0.331479462480575 146
0.3192457515419972 -0.08699566343124736 147
0.185826898375184 0.1906959260056886 148
0.4092665918685552 -0.07504108448757867 149
0.3170047643988654 0.5594857406283757 150
0.2709405647299238 0.4233341707865062 151
-0.08195745765101037 0.5805178997164216 152
0.8465921655001059 -0.07413738729185525 153
0.04942366325121783 -0.7376343967669224 154
0.7418801407967478 -0.5034336177858822 155
0.3688336346002875 -0.5544637869622278 156
0.4056677918996124 -0.7115453890086758 157
0.7457097614493076 0.5565461354670619 158
0.8196973332368058 0.6833438731590763 159
0.9944999368892875 0.6697832189750498 160
0.8793898877859896 0.1069744951097623 161
0.875388603567725 -0.7774004835971 162
1.07145669624087 0.41389825662311 163
1.227225362918386 0.4110429176794074 164
1.289675347158501 0.2525785683462966 165
0.2777429827327044 -0.1681387576748575 166
1.130925148031335 0.2843496117341025 167
-0.05050758897686891 -0.4109262640134527 168
0.562857848773696 -0.7272365336743108 169
1.095570139948808 -0.4161337836282811 170
1.314725577409834 -0.08508795238807917 171
1.324014891493165 -0.2461136036545633 172
1.185355175419486 0.0334826219765803 173
-0.3620965626931586 0.02246439248307016 174
-0.2243468363243831 0.02750719083838023 175
0.6739777889804206 -0.06356481452314454 176
1.142894023925444 -0.5702740177809955 177
-0.08450849722552289 0.3233266831014284 178
0.5875030327908395 -0.05170618739845956 179
0.0811627201286047 -0.1920425855146561 180
0.1452293127897996 -0.2884253383376233 181
1.246110911080396 -0.4299469607702651 182
0.7751771871633357 0.2318104733309243 183
0.5013683440323005 0.8458687783540915 184
0.8087273436028088 -0.6465401930258521 185
0.3734971380525688 -0.8680927328372136 186
-0.1607713059508532 -0.0532576509831806 187
0.07967009767206651 -0.3783123347693527 188
-0.3224443297328018 -0.3371809961451754 189
0.2719247217147965 -0.639882550277613 190
0.1345118556601201 -0.6278079415942224 191
0.6563757070985423 0.2534539897381979 192
-0.1902924891614278 -0.5260016048685174 193
1.018027113826534 -0.5185491643967061 194
0.4570628095856502 -0.1428967408358777 195
1.094092518076609 -0.01293583042727212 196
1.220662822206518 -0.1845538092907064 197
0.5397463045795465 -0.8767761688153999 198
0.6904070016716538 0.6680837768889343 199
-0.3590287910790357 -0.2099871354455597 200
0.3582080061117202 0.8639614533438492 201
-0.1518637708005502 0.1190163764623057 202
-0.1939057160334504 0.2675221648989005 203
-0.05750724749703717 0.438480100487117 204
0.7808742226984633 -0.14534816747116 205
1.005627069975275 0.5196298872068696 206
0.5609957881924041 0.2545281822346303 207
0.4626396115205465 0.3866339339778528 208
0.8876773707719238 0.79876612151794 209
0.228316026201136 0.6519177672006886 210
NMARK= 2
MARKER_TAG= farfield
MARKER_ELEMS= 31
3 0 1 
3 1 2 
3 2 3 
3 3 4 
3 4 5 
3 5 6 
3 6 7 
3 7 8 
3 8 9 
3 9 10 
3 10 11 
3 11 12 
3 12 13 
3 13 14 
3 14 15 
3 15 16 
3 16 17 
3 17 18 
3 18 19 
3 19 20 
3 20 21 
3 21 22 
3 22 23 
3 23 24 
3 24 25 
3 25 26 
3 26 27 
3 27 28 
3 28 29 
3 29 30 
3 30 0 
MARKER_TAG= airfoil
MARKER_ELEMS= 22
3 31 33 
3 33 34 
3 34 35 
3 35 36 
3 36 37 
3 37 38 
3 38 39 
3 39 40 
3 40 41 
3 41 42 
3 42 32 
3 32 43 
3 43 44 
3 44 45 
3 45 46 
3 46 47 
3 47 48 
3 48 49 
3 49 50 
3 50 51 
3 51 52 
3 52 31 
