$MeshFormat
4.1 0 8
$EndMeshFormat
$PhysicalNames
1
2 1 "domain"
$EndPhysicalNames
$Entities
0 0 1 0
1 0.0 0.0 0 1.0 1.0 0 1 1 0 0
$EndEntities
$Nodes
1 25 1 25
2 1 0 25
1
2
3
4
5
6
7
8
9
10
11
12
13
14
15
16
17
18
19
20
21
22
23
24
25
0.0 0.0 0
0.25 0.0 0
0.5 0.0 0
0.75 0.0 0
1.0 0.0 0
0.0 0.25 0
0.25 0.25 0
0.5 0.25 0
0.75 0.25 0
1.0 0.25 0
0.0 0.5 0
0.25 0.5 0
0.5 0.5 0
0.75 0.5 0
1.0 0.5 0
0.0 0.75 0
0.25 0.75 0
0.5 0.75 0
0.75 0.75 0
1.0 0.75 0
0.0 1.0 0
0.25 1.0 0
0.5 1.0 0
0.75 1.0 0
1.0 1.0 0
$EndNodes
$Elements
1 32 1 32
2 1 2 32
1 1 2 6
2 2 7 6
3 2 3 7
4 3 8 7
5 3 4 8
6 4 9 8
7 4 5 9
8 5 10 9
9 6 7 11
10 7 12 11
11 7 8 12
12 8 13 12
13 8 9 13
14 9 14 13
15 9 10 14
16 10 15 14
17 11 12 16
18 12 17 16
19 12 13 17
20 13 18 17
21 13 14 18
22 14 19 18
23 14 15 19
24 15 20 19
25 16 17 21
26 17 22 21
27 17 18 22
28 18 23 22
29 18 19 23
30 19 24 23
31 19 20 24
32 20 25 24
$EndElements
