$MeshFormat
4.1 0 8
$EndMeshFormat
$PhysicalNames
5
1 1 "bottom"
1 2 "right"
1 3 "top"
1 4 "left"
2 5 "domain"
$EndPhysicalNames
$Entities
4 4 1 0
1 0 0 0 0 
2 1 0 0 0 
3 1 1 0 0 
4 0 1 0 0 
1 0 0 0 1 0 0 1 1 2 1 -2 
2 1 0 0 1 1 0 1 2 2 2 -3 
3 0 1 0 1 1 0 1 3 2 3 -4 
4 0 0 0 0 1 0 1 4 2 4 -1 
1 0 0 0 1 1 0 1 5 4 1 2 3 4 
$EndEntities
$Nodes
9 12 1 12
0 1 0 1
1
0 0 0
0 2 0 1
2
1 0 0
0 3 0 1
3
1 1 0
0 4 0 1
4
0 1 0
1 1 0 1
5
0.4999999999986938 0 0
1 2 0 1
6
1 0.4999999999986938 0
1 3 0 1
7
0.5000000000020595 1 0
1 4 0 1
8
0 0.5000000000020595 0
2 1 0 4
9
10
11
12
0.2937500000004588 0.7062500000004164 0
0.3749999999995794 0.3750000000004208 0
0.6479166666669074 0.6437499999998403 0
0.7187499999993462 0.2812499999995109 0
$EndNodes
$Elements
5 22 1 22
1 1 1 2
1 1 5 
2 5 2 
1 2 1 2
3 2 6 
4 6 3 
1 3 1 2
5 3 7 
6 7 4 
1 4 1 2
7 4 8 
8 8 1 
2 1 2 14
9 6 3 11 
10 8 1 10 
11 1 5 10 
12 3 7 11 
13 5 2 12 
14 2 6 12 
15 7 4 9 
16 4 8 9 
17 6 11 12 
18 9 8 10 
19 9 10 11 
20 10 5 12 
21 11 10 12 
22 7 9 11 
$EndElements
