$MeshFormat
4.1 0 8
$EndMeshFormat
$PhysicalNames
3
1 1 "airfoil"
1 2 "farfield"
2 3 "fluid"
$EndPhysicalNames
$Entities
203 6 1 0
1 0 0 0 0 
2 0.0007086521616190278 0.004688499704640399 0 0 
3 0.002832599894931453 0.009265164883969383 0 0 
4 0.006365822639327723 0.01372333567633625 0 0 
5 0.01129830509106666 0.01805428529241332 0 0 
6 0.01761606559274204 0.02224741119585292 0 0 
7 0.02530119576580936 0.02629049248504776 0 0 
8 0.03433191127383078 0.03017000459698874 0 0 
9 0.04468261357254338 0.03387148052283692 0 0 
10 0.05632396247171423 0.03737990621221612 0 0 
11 0.06922295930309696 0.04068013680545872 0 0 
12 0.08334304045874252 0.04375731980651414 0 0 
13 0.09864418103451816 0.04659731130929033 0 0 
14 0.1150830082850469 0.04918707191058562 0 0 
15 0.1326129245684664 0.05151502995602631 0 0 
16 0.1511842394325076 0.05357140122423242 0 0 
17 0.1707443104674807 0.05534845599373282 0 0 
18 0.191237692526904 0.05684072657706557 0 0 
19 0.2126062948927966 0.05804515075583958 0 0 
20 0.2347895459401287 0.05896114901077047 0 0 
21 0.2577245648336749 0.05959063591022867 0 0 
22 0.2813463397705723 0.05993796839931532 0 0 
23 0.3055879122633396 0.06000983592410843 0 0 
24 0.3303805669409848 0.05981509924720494 0 0 
25 0.3556540263301894 0.05936458638877251 0 0 
26 0.3813366500644426 0.05867085530572368 0 0 
27 0.4073556379564429 0.05774793366220746 0 0 
28 0.433637236358139 0.05661104632877637 0 0 
29 0.4601069472234585 0.05527634107678495 0 0 
30 0.4866897392811126 0.05376062232991313 0 0 
31 0.5133102607188873 0.05208110183571683 0 0 
32 0.5398930527765415 0.05025517378269598 0 0 
33 0.5663627636418609 0.04830022028207762 0 0 
34 0.5926443620435571 0.04623345133820329 0 0 
35 0.6186633499355574 0.04407178153353239 0 0 
36 0.6443459736698105 0.04183174374287998 0 0 
37 0.6696194330590152 0.03952943835420784 0 0 
38 0.6944120877366603 0.0371805147923216 0 0 
39 0.7186536602294277 0.03480018069041189 0 0 
40 0.742275435166325 0.03240323289354999 0 0 
41 0.7652104540598712 0.03000410365424497 0 0 
42 0.7873937051072034 0.02761691492257057 0 0 
43 0.8087623074730959 0.02525553355398498 0 0 
44 0.8292556895325193 0.02293362055057677 0 0 
45 0.8488157605674923 0.0206646680923903 0 0 
46 0.8673870754315336 0.01846201906492783 0 0 
47 0.8849169917149531 0.01633886499310714 0 0 
48 0.9013558189654818 0.01430821968580958 0 0 
49 0.9166569595412575 0.01238286740556303 0 0 
50 0.9307770406969029 0.01057528592726675 0 0 
51 0.9436760375282858 0.008897546359822284 0 0 
52 0.9553173864274567 0.007361192999743599 0 0 
53 0.9656680887261693 0.005977107697493361 0 0 
54 0.9746988042341906 0.004755364186456451 0 0 
55 0.982383934407258 0.003705078504684952 0 0 
56 0.9887016949089333 0.002834261999075974 0 0 
57 0.9936341773606723 0.002149683424828436 0 0 
58 0.9971674001050685 0.001656746340950274 0 0 
59 0.9992913478383809 0.001359387372953516 0 0 
60 1 0.001259999999999978 0 0 
61 0.9992913478383809 -0.001359387372953516 0 0 
62 0.9971674001050685 -0.001656746340950274 0 0 
63 0.9936341773606723 -0.002149683424828436 0 0 
64 0.9887016949089333 -0.002834261999075974 0 0 
65 0.982383934407258 -0.003705078504684952 0 0 
66 0.9746988042341906 -0.004755364186456451 0 0 
67 0.9656680887261693 -0.005977107697493361 0 0 
68 0.9553173864274567 -0.007361192999743599 0 0 
69 0.9436760375282858 -0.008897546359822284 0 0 
70 0.9307770406969029 -0.01057528592726675 0 0 
71 0.9166569595412575 -0.01238286740556303 0 0 
72 0.9013558189654818 -0.01430821968580958 0 0 
73 0.8849169917149531 -0.01633886499310714 0 0 
74 0.8673870754315336 -0.01846201906492783 0 0 
75 0.8488157605674923 -0.0206646680923903 0 0 
76 0.8292556895325193 -0.02293362055057677 0 0 
77 0.8087623074730959 -0.02525553355398498 0 0 
78 0.7873937051072034 -0.02761691492257057 0 0 
79 0.7652104540598712 -0.03000410365424497 0 0 
80 0.742275435166325 -0.03240323289354999 0 0 
81 0.7186536602294277 -0.03480018069041189 0 0 
82 0.6944120877366603 -0.0371805147923216 0 0 
83 0.6696194330590152 -0.03952943835420784 0 0 
84 0.6443459736698105 -0.04183174374287998 0 0 
85 0.6186633499355574 -0.04407178153353239 0 0 
86 0.5926443620435571 -0.04623345133820329 0 0 
87 0.5663627636418609 -0.04830022028207762 0 0 
88 0.5398930527765415 -0.05025517378269598 0 0 
89 0.5133102607188873 -0.05208110183571683 0 0 
90 0.4866897392811126 -0.05376062232991313 0 0 
91 0.4601069472234585 -0.05527634107678495 0 0 
92 0.433637236358139 -0.05661104632877637 0 0 
93 0.4073556379564429 -0.05774793366220746 0 0 
94 0.3813366500644426 -0.05867085530572368 0 0 
95 0.3556540263301894 -0.05936458638877251 0 0 
96 0.3303805669409848 -0.05981509924720494 0 0 
97 0.3055879122633396 -0.06000983592410843 0 0 
98 0.2813463397705723 -0.05993796839931532 0 0 
99 0.2577245648336749 -0.05959063591022867 0 0 
100 0.2347895459401287 -0.05896114901077047 0 0 
101 0.2126062948927966 -0.05804515075583958 0 0 
102 0.191237692526904 -0.05684072657706557 0 0 
103 0.1707443104674807 -0.05534845599373282 0 0 
104 0.1511842394325076 -0.05357140122423242 0 0 
105 0.1326129245684664 -0.05151502995602631 0 0 
106 0.1150830082850469 -0.04918707191058562 0 0 
107 0.09864418103451816 -0.04659731130929033 0 0 
108 0.08334304045874252 -0.04375731980651414 0 0 
109 0.06922295930309696 -0.04068013680545872 0 0 
110 0.05632396247171423 -0.03737990621221612 0 0 
111 0.04468261357254338 -0.03387148052283692 0 0 
112 0.03433191127383078 -0.03017000459698874 0 0 
113 0.02530119576580936 -0.02629049248504776 0 0 
114 0.01761606559274204 -0.02224741119585292 0 0 
115 0.01129830509106666 -0.01805428529241332 0 0 
116 0.006365822639327723 -0.01372333567633625 0 0 
117 0.002832599894931453 -0.009265164883969383 0 0 
118 0.0007086521616190278 -0.004688499704640399 0 0 
119 0 0 0 0 
120 1.05 -0.05 0 0 
121 1.051573902593556 -0.04757193751289829 0 0 
122 1.054326633053617 -0.0456851731989671 0 0 
123 1.058242458779365 -0.04434611903699934 0 0 
124 1.063296515008579 -0.04356200075308713 0 0 
125 1.06945522701313 -0.04334009403782744 0 0 
126 1.076676865978851 -0.04368674834275357 0 0 
127 1.084912207957756 -0.0446062787879458 0 0 
128 1.094105261222707 -0.04609981688054279 0 0 
129 1.104194026190638 -0.04816421299010258 0 0 
130 1.115111253839608 -0.05079107777761772 0 0 
131 1.126785172985942 -0.0539660366991128 0 0 
132 1.139140163425336 -0.05766825264099475 0 0 
133 1.152097360096596 -0.06187024856498416 0 0 
134 1.165575182292928 -0.06653803696396032 0 0 
135 1.179489790671437 -0.0716315383020777 0 0 
136 1.193755482581302 -0.07710524867746028 0 0 
137 1.208285042344728 -0.08290909963144272 0 0 
138 1.222990067062928 -0.08898944176497031 0 0 
139 1.237781289990366 -0.09529007941430412 0 0 
140 1.252568922484241 -0.1017532861976332 0 0 
141 1.26726303220147 -0.1083207401991483 0 0 
142 1.281773970013936 -0.1149343317235893 0 0 
143 1.296012851649341 -0.1215368142706398 0 0 
144 1.309892093053142 -0.1280722886851695 0 0 
145 1.323325991653181 -0.1344865292849469 0 0 
146 1.336231339795429 -0.1407271772207422 0 0 
147 1.34852805219442 -0.1467438387686947 0 0 
148 1.360139786720355 -0.1524881335496829 0 0 
149 1.370994537429643 -0.157913739254692 0 0 
150 1.381025180412028 -0.1629764753940837 0 0 
151 1.390169956530557 -0.1676344595515913 0 0 
152 1.398372880036424 -0.1718483567996024 0 0 
153 1.405584067776125 -0.1755817278910479 0 0 
154 1.411759989625454 -0.1788014663603966 0 0 
155 1.416863646232182 -0.1814783005269286 0 0 
156 1.420864684542059 -0.1835873251986755 0 0 
157 1.423739464465764 -0.1851085208704406 0 0 
158 1.425471091139519 -0.1860272161523057 0 0 
159 1.4260494264666 -0.1863344522493914 0 0 
160 1.425064152042102 -0.1871452721335498 0 0 
161 1.423147123106856 -0.1867359653786501 0 0 
162 1.419967108191392 -0.1860533959543694 0 0 
163 1.415546480099883 -0.1850971847330918 0 0 
164 1.409916216481279 -0.1838671914406149 0 0 
165 1.403115577872935 -0.1823638481602148 0 0 
166 1.395191722896706 -0.1805885142087143 0 0 
167 1.386199277988193 -0.1785438091866498 0 0 
168 1.376199878556465 -0.1762338832842973 0 0 
169 1.365261696177384 -0.1736645911445893 0 0 
170 1.353458962592868 -0.1708435469832995 0 0 
171 1.340871496372697 -0.1677800529996726 0 0 
172 1.327584232676116 -0.164484908774659 0 0 
173 1.313686751275686 -0.1609701245628088 0 0 
174 1.299272793520618 -0.1572485743612063 0 0 
175 1.284439755791446 -0.1533336338133914 0 0 
176 1.269288145664 -0.1492388521883178 0 0 
177 1.253920987700876 -0.1449777061938896 0 0 
178 1.238443168546052 -0.1405634761755802 0 0 
179 1.222960715608068 -0.1360092728730174 0 0 
180 1.207580009663453 -0.1313282265025268 0 0 
181 1.192406938606063 -0.1265338311171852 0 0 
182 1.177546006606637 -0.1216404178990435 0 0 
183 1.16309941938353 -0.1166637133120816 0 0 
184 1.149166171406932 -0.1116214238488189 0 0 
185 1.135841164060586 -0.1065337801001496 0 0 
186 1.123214384636274 -0.1014239702511729 0 0 
187 1.111370174329562 -0.09631839742843977 0 0 
188 1.100386609182092 -0.09124670648363602 0 0 
189 1.090335011469597 -0.0862415429920515 0 0 
190 1.08127960088727 -0.08133802904175105 0 0 
191 1.073277285737841 -0.07657296486427254 0 0 
192 1.066377585000817 -0.07198379026651879 0 0 
193 1.060622663508864 -0.06760736282169605 0 0 
194 1.056047455288083 -0.06347862864742734 0 0 
195 1.052679845115911 -0.05962927447049072 0 0 
196 1.050540876002491 -0.05608645521247722 0 0 
197 1.04964495085355 -0.0528716888617811 0 0 
198 1.05 -0.05 0 0 
199 0 0 0 0 
200 2 0 0 0 
201 0 2 0 0 
202 -2 0 0 0 
203 0 -2 0 0 
1 0 -0.0582881276556835 0 0.9737616996000774 0.0572681798970586 0 1 1 2 1 -1 
2 1.05 -0.1840173584976643 0 1.417362786043079 -0.04765668878268697 0 1 1 2 120 -120 
10 1.110223024625157e-16 0 0 2 2 0 1 2 2 200 -201 
11 -2 1.110223024625157e-16 0 0 2 0 1 2 2 201 -202 
12 -2 -2 0 -1.110223024625157e-16 0 0 1 2 2 202 -203 
13 0 -2 0 2 -1.110223024625157e-16 0 1 2 2 203 -200 
1 -2 -2 0 2 2 0 1 3 6 10 11 12 13 -1 -2 
$EndEntities
$Nodes
13 611 1 611
0 1 0 1
1
0 0 0
0 120 0 1
2
1.05 -0.05 0
0 200 0 1
3
2 0 0
0 201 0 1
4
0 2 0
0 202 0 1
5
-2 0 0
0 203 0 1
6
0 -2 0
1 1 0 101
7
8
9
10
11
12
13
14
15
16
17
18
19
20
21
22
23
24
25
26
27
28
29
30
31
32
33
34
35
36
37
38
39
40
41
42
43
44
45
46
47
48
49
50
51
52
53
54
55
56
57
58
59
60
61
62
63
64
65
66
67
68
69
70
71
72
73
74
75
76
77
78
79
80
81
82
83
84
85
86
87
88
89
90
91
92
93
94
95
96
97
98
99
100
101
102
103
104
105
106
107
0.009537286210215731 0.01665687500757599 0
0.02648600746755785 0.02684419209924241 0
0.04497978109399914 0.03396868154354723 0
0.06404189101061604 0.03941800558414543 0
0.08338701394169569 0.04376616161989404 0
0.1028964791990357 0.04730918369134655 0
0.1225101200459243 0.05022342825035125 0
0.1421934217283072 0.05262424946884282 0
0.1619247707454897 0.05459280208654969 0
0.1816897944301566 0.0561892142167228 0
0.2014784878225625 0.05745987446435477 0
0.2212836522429238 0.05844174286157243 0
0.241099975935221 0.05916502552522536 0
0.2609234677164657 0.05965489928440714 0
0.2807510811960314 0.0599326702198315 0
0.3005804739345602 0.06001697331566085 0
0.320409839704094 0.0599241406357807 0
0.3402377827536584 0.05966832506112166 0
0.3600632201988259 0.0592619293535173 0
0.3798853090825777 0.05871590980529931 0
0.399703429645459 0.05804094385122413 0
0.4195171174306641 0.0572463009769854 0
0.4393260113344901 0.05633987702796487 0
0.4591298386163421 0.05532872917762308 0
0.4789284575749578 0.05422025106441193 0
0.4987217756944283 0.05302079128601204 0
0.5185097078896646 0.05173548736364483 0
0.5382922033179008 0.05036903219828095 0
0.5580693096536993 0.04892667705858277 0
0.5778410524592407 0.04741254683274929 0
0.5976074337506666 0.04582994393899826 0
0.6173684675820924 0.04418190169326505 0
0.6371242301107815 0.04247183579520151 0
0.656874756196936 0.04070230235548752 0
0.676620043787392 0.03887523720501077 0
0.6963600866635014 0.03699234289568511 0
0.7160948768107726 0.03505516826493547 0
0.7358244145188086 0.03306522034415043 0
0.7555486438591723 0.03102331289478426 0
0.7752674806970808 0.02892998062594852 0
0.7949808241746261 0.02678551714541671 0
0.8146885426182123 0.02458996591173641 0
0.8343904777757283 0.02234311055358018 0
0.8540864375074643 0.02004446502402202 0
0.8737761919943892 0.01769326339927306 0
0.8934594726786188 0.0152884670034795 0
0.9131359766474363 0.01282885430227289 0
0.9328054034163891 0.01031325534777793 0
0.952467272110581 0.007739209012652083 0
0.9721212134292058 0.005105372540011296 0
0.9917667199217067 0.002409351341745373 0
0.9711924013620233 -0.005231289970055843 0
0.951538067116695 -0.007862227622721447 0
0.9318758354793862 -0.01043343401524341 0
0.9122060704641451 -0.01294637704178247 0
0.8925292471015952 -0.01540338725669205 0
0.8728456535710435 -0.01780561427664152 0
0.8531555984260952 -0.02015430008886371 0
0.8334593500505891 -0.0224504796666338 0
0.8137571394244222 -0.02469490560559888 0
0.7940491524736301 -0.02688804807161439 0
0.7743355477951819 -0.02903010569454452 0
0.7546164542491257 -0.03112101705171868 0
0.734891971613686 -0.03316046955198179 0
0.7151621795079063 -0.03514790852674336 0
0.6954271403900667 -0.0370825356501456 0
0.6756868547668624 -0.03896287802048899 0
0.6559413215377519 -0.04078728867184589 0
0.6361905465422041 -0.04255404102863079 0
0.616434530205928 -0.04426117361657405 0
0.596673248718443 -0.04590623459998606 0
0.5769066181419708 -0.04748572238586805 0
0.5571346212207262 -0.04899652610773778 0
0.5373572551925599 -0.05043531557618259 0
0.5175745064989964 -0.05179809347959738 0
0.4977863219841282 -0.05307950549056905 0
0.4779927497383194 -0.05427476341771366 0
0.4581938774573469 -0.05537870300108495 0
0.4383898100976338 -0.0563851311616768 0
0.4185806850727962 -0.05728648713609243 0
0.3987667779244194 -0.05807563259111803 0
0.3789484561359963 -0.05874464300651468 0
0.3591261944918042 -0.05928435018523151 0
0.3393006190893186 -0.05968393817614819 0
0.3194725821055872 -0.05993233697427655 0
0.2996431805829695 -0.0600170910611972 0
0.2798138281132282 -0.05992398344053374 0
0.2599863510879662 -0.05963666109199302 0
0.2401631234874074 -0.05913629015546446 0
0.2203472292360131 -0.05840139007216805 0
0.2005427111926467 -0.0574065899547523 0
0.180754957377572 -0.05612141792244785 0
0.1609912729925916 -0.05450854154644708 0
0.1412618277990822 -0.05252103723253989 0
0.121581261571174 -0.05009798087342853 0
0.101971630813823 -0.04715697009177277 0
0.08246828670759473 -0.04358053658308786 0
0.06313319271743896 -0.03918825401309915 0
0.04408933337019471 -0.0336760688643569 0
0.02563626313069508 -0.02644866208524388 0
0.008823267212265562 -0.01604970191891546 0
1 2 0 39
108
109
110
111
112
113
114
115
116
117
118
119
120
121
122
123
124
125
126
127
128
129
130
131
132
133
134
135
136
137
138
139
140
141
142
143
144
145
146
1.067696181161583 -0.04334400777340164 0
1.087533122921349 -0.04498829621119169 0
1.1070824902934 -0.04882320181469521 0
1.126363929480981 -0.05384568014823417 0
1.145420304891429 -0.05966730679491263 0
1.164286455998596 -0.06607995696469934 0
1.18299032893011 -0.07295220549747468 0
1.201554446866365 -0.08019385725358605 0
1.21999816892661 -0.08773708178842324 0
1.238337710762764 -0.09553031508598538 0
1.256586102682735 -0.1035347515944897 0
1.274754204790089 -0.1117198472373767 0
1.292850900358967 -0.1200616650450562 0
1.310882949643252 -0.1285423426371605 0
1.328854480697873 -0.1371505396485134 0
1.346768072963718 -0.1458786705255393 0
1.364624529680406 -0.154723104109412 0
1.382422197337441 -0.163685251449112 0
1.400157754083587 -0.1727696850428513 0
1.417825898907399 -0.1819845233455739 0
1.396580145459941 -0.1809015506033437 0
1.377155489582417 -0.176456366715319 0
1.357761815103247 -0.1718778951937934 0
1.338398794720162 -0.1671714624786722 0
1.319066772807202 -0.1623392776257621 0
1.299767555877524 -0.1573777037423832 0
1.280504015198316 -0.1522794021787756 0
1.261280370902869 -0.1470327107936531 0
1.242102995831885 -0.1416193934529219 0
1.222980551941133 -0.1360152083964145 0
1.203924369254536 -0.1301898221518923 0
1.18494961196589 -0.1241046222479135 0
1.166077210886543 -0.1177092842154438 0
1.147336202827583 -0.1109389773075904 0
1.128767736514432 -0.103709495171024 0
1.110435842750233 -0.09590066474775706 0
1.092449459950947 -0.08732818150446807 0
1.075030919502051 -0.07766007535529719 0
1.058836282602605 -0.06608919637886633 0
1 10 0 3
147
148
149
1.847759064166955 0.7653668667958264 0
1.414213559155406 1.414213565590784 0
0.7653668624603734 1.847759065962758 0
1 11 0 3
150
151
152
-0.7653668667958264 1.847759064166955 0
-1.414213565590784 1.414213559155406 0
-1.847759065962758 0.7653668624603734 0
1 12 0 3
153
154
155
-1.847759064166955 -0.7653668667958264 0
-1.414213559155406 -1.414213565590784 0
-0.7653668624603734 -1.847759065962758 0
1 13 0 3
156
157
158
0.7653668667958264 -1.847759064166955 0
1.414213565590784 -1.414213559155406 0
1.847759065962758 -0.7653668624603734 0
2 1 0 453
159
160
161
162
163
164
165
166
167
168
169
170
171
172
173
174
175
176
177
178
179
180
181
182
183
184
185
186
187
188
189
190
191
192
193
194
195
196
197
198
199
200
201
202
203
204
205
206
207
208
209
210
211
212
213
214
215
216
217
218
219
220
221
222
223
224
225
226
227
228
229
230
231
232
233
234
235
236
237
238
239
240
241
242
243
244
245
246
247
248
249
250
251
252
253
254
255
256
257
258
259
260
261
262
263
264
265
266
267
268
269
270
271
272
273
274
275
276
277
278
279
280
281
282
283
284
285
286
287
288
289
290
291
292
293
294
295
296
297
298
299
300
301
302
303
304
305
306
307
308
309
310
311
312
313
314
315
316
317
318
319
320
321
322
323
324
325
326
327
328
329
330
331
332
333
334
335
336
337
338
339
340
341
342
343
344
345
346
347
348
349
350
351
352
353
354
355
356
357
358
359
360
361
362
363
364
365
366
367
368
369
370
371
372
373
374
375
376
377
378
379
380
381
382
383
384
385
386
387
388
389
390
391
392
393
394
395
396
397
398
399
400
401
402
403
404
405
406
407
408
409
410
411
412
413
414
415
416
417
418
419
420
421
422
423
424
425
426
427
428
429
430
431
432
433
434
435
436
437
438
439
440
441
442
443
444
445
446
447
448
449
450
451
452
453
454
455
456
457
458
459
460
461
462
463
464
465
466
467
468
469
470
471
472
473
474
475
476
477
478
479
480
481
482
483
484
485
486
487
488
489
490
491
492
493
494
495
496
497
498
499
500
501
502
503
504
505
506
507
508
509
510
511
512
513
514
515
516
517
518
519
520
521
522
523
524
525
526
527
528
529
530
531
532
533
534
535
536
537
538
539
540
541
542
543
544
545
546
547
548
549
550
551
552
553
554
555
556
557
558
559
560
561
562
563
564
565
566
567
568
569
570
571
572
573
574
575
576
577
578
579
580
581
582
583
584
585
586
587
588
589
590
591
592
593
594
595
596
597
598
599
600
601
602
603
604
605
606
607
608
609
610
611
0.7277516870496374 -0.0578018615561797 0
0.567242235588017 -0.06357349545735053 0
0.411249961320037 -0.07261857408759786 0
0.8452960239156388 -0.03835983988307755 0
0.9239817493577852 -0.02906767165132268 0
0.7870879735117563 -0.04694601565510709 0
0.306537272368381 0.08030280361277083 0
0.4518655979915807 0.07483970044695279 0
0.6067666392161311 0.06039118451071715 0
0.7676605796198475 0.04594095769888453 0
0.9845666543593061 0.02947943808848245 0
0.9653104853926062 -0.02362144577286616 0
0.8843932510082234 -0.03407547394270375 0
-1.261052386875905 0.2508389148580642 0
-0.7647367217460654 -1.133811801483545 0
0.2478488165130522 -0.07863704749794376 0
-0.1497068673521194 1.207370008872211 0
0.1719500590590106 0.07458870904994974 0
0.7540306293021557 -1.169911912811078 0
1.245036343110226 -0.1656771147896108 0
1.151581880875893 -0.1369183781264061 0
0.712721325499778 1.044575492564177 0
0.9864817753168311 -0.01749277445894613 0
0.9797365355841074 -0.03699215568412411 0
1.055353875436382 -0.08373150338481578 0
1.006126613874418 -0.008991859507619696 0
0.9591639508712149 -0.04308555898407904 0
0.9758032906377945 -0.05689076696487146 0
0.9534863447586713 -0.06332658360671931 0
0.9722567077590125 -0.07902066729568126 0
0.9463561378832176 -0.08885433989374776 0
0.969834214486579 -0.1104002064869814 0
0.9351073930388625 -0.1213278474710737 0
0.9695530828427029 -0.1509777885616673 0
0.925229334472116 -0.1607965862603138 0
0.9630935022575031 -0.1954777671965038 0
0.9961331809997809 -0.06855696805717687 0
1.018724084788434 -0.1754765743235908 0
1.092591150692869 -0.1102190622350477 0
0.8919881724709263 -0.1182484550546768 0
1.041458875217537 -0.06668763181647772 0
1.033590697172475 -0.08708930800334022 0
1.030964620188104 -0.05048929971434538 0
1.038954762519205 -0.03394727398482536 0
0.9312271908702798 -0.07226569986787668 0
1.048520187142132 -0.1070736994993744 0
1.020774025595531 -0.1087045517467226 0
1.002593200910433 -0.03208106509127318 0
1.541850209804781 0.3622291328943613 0
1.145687851609936 -0.03484115989913475 0
1.213957761084077 -0.06486261516188382 0
1.287837297831029 -0.0969076801074689 0
1.333033729060084 0.7787763131731069 0
0.7954017021519422 0.5750545360906151 0
0.8866211026405409 0.03616496929946762 0
1.020681708504483 -0.06820654252024634 0
1.02161419544547 -0.0227051432060526 0
1.028302551691869 5.595501470961825e-05 0
1.077886488498268 -0.02206597282913384 0
0.9441084078131821 -0.02686231352889057 0
1.012107233325141 -0.08485714030892073 0
0.3476017107245063 1.427389455470774 0
0.1919837936503629 0.9651677090594782 0
-0.2595334181013506 0.8255991681777589 0
0.07261224554165596 0.5633796088790878 0
0.05393370767531858 0.05909231384210464 0
-0.5840094440445599 0.959913642941138 0
-0.6718429668689603 0.5652734931109786 0
-0.2791279298171447 0.4070510190557994 0
-0.5993884178681862 0.2357561543551497 0
-0.3493560430678931 0.09313945193389953 0
-1.102076331139682 0.7992921415577436 0
1.188060699033586 0.3993581379209817 0
0.9181353119331013 0.2908838305615221 0
1.343150986672194 0.1820010871276326 0
1.36335580548778 -0.1348367421792459 0
1.571643223264009 0.0413789215189437 0
1.135144449236579 0.1826707818682084 0
0.9963094170570824 0.1833062187604577 0
1.233450995886666 0.08035702202644128 0
1.362081778500739 0.02831495836999247 0
1.121632534984955 0.07604567450149299 0
1.046695940438113 0.1065680467136408 0
0.9629181933797589 0.1057931055374936 0
0.8903374175986623 0.1649511713544843 0
0.7972174358931614 0.2594570692697037 0
0.689141095838644 0.06206005151449379 0
0.6463747872263174 0.05698158808952052 0
0.8346969634810817 0.04005479054666654 0
0.9249410334829775 0.03343277512891987 0
0.7855107475463369 0.1531964349560672 0
0.6977759876214007 0.2188741642076836 0
0.5265283892149752 0.07239902461645945 0
0.4883715586447088 0.07370499844970482 0
0.6931482952274529 0.3145269863339006 0
0.575404877389894 0.2641331874515708 0
0.6252962720550913 0.4353327164462731 0
0.4494543507489378 0.3487674469938781 0
0.4285368707559207 0.5372460257244546 0
0.4489603643848222 0.2128348729767782 0
0.3694972005525075 0.07417471792934682 0
0.3443767224565915 0.269046340319456 0
0.5383308552370525 0.1684465898218628 0
0.3593481778411792 0.1726320255094372 0
0.2509869021686814 0.07620735886096702 0
0.2086757416346288 0.07802110818801607 0
0.2606560617385525 0.2046624850999681 0
0.2367092003382654 0.3061274428057015 0
0.1589487894226277 0.2256494847611132 0
0.1101795146564951 0.06575204992451004 0
0.1312145438742666 0.3162807711167824 0
0.04369324871447969 0.2478046363696936 0
0.0227656262137388 0.3907428930980604 0
0.08999758010844867 0.171032347406344 0
-0.002581884386507383 0.1503928853261625 0
0.4232811338752392 0.1414347326296281 0
0.4107652277666232 0.07341977579044549 0
0.1532159018317246 0.153780476772611 0
0.7090295413793861 0.1366899273318838 0
0.2948092179601168 0.1402432766233172 0
-0.1165218372407002 0.5499171191796458 0
-0.06583173870284237 0.2654697285172521 0
-0.126765701952474 0.1626178408997735 0
-0.06842520614072498 0.08048551198534273 0
0.006913286800296167 0.03703972592563316 0
-0.1726468065733505 0.05797087042710834 0
-0.1093911774915692 -0.01578605503323108 0
0.02379585482092803 -0.05132390663023427 0
-0.1953307768411761 -0.04912972400341367 0
-0.05431993156963885 0.02314839871563974 0
-0.0139326245673879 -0.02148830541250219 0
-0.01148105248808834 0.01779489589250006 0
-0.024650283819467 0.04607270400066454 0
-0.0032226740807381 0.0757539025586669 0
0.03798656661714753 0.09058478394042122 0
0.07625486716624755 0.08049930017992245 0
0.8478697745122183 0.1085181925178617 0
1.010744374187178 -0.05128855967497193 0
0.904339377800088 -0.03091268695205157 0
0.8967478485991647 -0.04990362940462716 0
0.8755165069368293 -0.05414163798071074 0
0.8914430321427892 -0.07719554108994314 0
0.8605571961103002 -0.0794689984837534 0
0.8465544737463696 -0.1250419033170836 0
0.8216469568025691 -0.09321566139351992 0
0.7985303111125572 -0.1307833895565233 0
0.6466305248751821 -0.06578924583449994 0
0.609762036678032 -0.05974040753699737 0
0.8208543936656373 -0.166520102381035 0
0.7709620896290368 -0.1761344151979984 0
0.820731596413431 -0.2198506373696109 0
0.7435183258636471 -0.1262658502366497 0
0.7117941327776675 -0.1783054202487698 0
0.6807300379733993 -0.1232807336191974 0
0.6567970576994179 -0.1680113276180253 0
0.4889246595128371 -0.07081886956942471 0
0.4496865670477377 -0.07162222176988045 0
0.6597903645795052 -0.236204251611928 0
0.687711505970841 -0.05929983979969466 0
0.6203635028071388 -0.1242979020977072 0
0.5978144472891759 -0.178290776702703 0
0.5598838424774614 -0.1248934676506001 0
0.538024585962804 -0.1691694801454732 0
0.5468012978553607 -0.2373117380114131 0
0.5986930467820402 -0.363489130527561 0
0.5286460810950718 -0.06824906694832733 0
0.5066494958284848 -0.1250458174119576 0
0.4809958787318609 -0.1779094424485661 0
0.3315541427248191 -0.0748924660047126 0
0.2869261805821104 -0.08272947034944948 0
0.4523824133755968 -0.1285763391667279 0
0.4094899180799102 -0.1715168949651601 0
0.1273834013039783 -0.06810253098535496 0
0.170786620362342 -0.07790315396043862 0
0.4481391964008008 -0.2462296960085111 0
0.3599970959978092 -0.2330451798527077 0
0.3998520732445783 -0.3288610071622942 0
0.3336305804778651 -0.1556446196343921 0
0.2804514542659057 -0.21653362942468 0
0.2593122725955988 -0.1444006377443996 0
0.2021591704410352 -0.1992232312685839 0
0.2214093807953384 -0.2937404897233535 0
0.3829201095158661 -0.1260827797959106 0
0.3714229608205465 -0.07390791095728497 0
0.1951230935326222 -0.136059453074432 0
0.1182695112726375 -0.1572250172559569 0
0.2094425996659923 -0.07723970258309676 0
0.7096272648336442 -0.08298334597076629 0
0.7502934245433319 -0.07614429660617038 0
0.3462720031510824 0.1229956774403107 0
0.2367593066151485 0.1453883210913315 0
0.2132300892318903 0.4572481765909797 0
0.8650346475157462 -0.036032044622793 0
0.8255578847179083 -0.04068718809448805 0
0.8355701475453208 -0.061874649444502 0
1.072053973807489 -0.09864312573618679 0
1.069441663967051 -0.1253675075560965 0
1.096173363192317 -0.1381653594988644 0
1.070544490944069 -0.1601949391527287 0
1.106600253400734 -0.1727050333934104 0
1.001038819565168 -0.2404333084089187 0
0.02784611259559686 0.05388059998493592 0
1.068052439287055 -0.2067062074490782 0
1.096220835228156 -0.3116958077299906 0
0.3873909389833845 0.1171474281490347 0
0.3417427499193078 0.09747666694994085 0
0.6286198253129591 0.1580552754722179 0
0.5759673218619111 0.1153376832732808 0
0.5704324986602041 0.0752536166296385 0
0.5260952284981663 0.1228821533435385 0
1.038564301671447 -0.1363589135372078 0
1.114104470395054 -0.1187223269059705 0
1.124677355119871 -0.1432867884074718 0
1.144305047195817 -0.1690601091066544 0
1.209185395484489 -0.1527394913467399 0
1.129331664754939 -0.2178540867358699 0
1.171596745026971 -0.1569815593291106 0
1.181439755820465 -0.1911245177748801 0
1.326768711582839 -0.1851030633522522 0
1.285718908010991 -0.1758594711411397 0
1.217303953058158 -0.1782239656779181 0
1.258492231587889 -0.1936067259939969 0
0.1177413437819232 0.1267154955991598 0
0.7566390521569895 0.1035242353352562 0
0.7270575124450284 0.05555518310997166 0
0.8013201594121405 0.08284575015490218 0
0.6500784172380775 -0.0982627742683778 0
0.07353818833479851 0.05704176052847912 0
0.5895480731360068 -0.09873812105217085 0
0.6241765550172759 0.1090954340383634 0
0.6718501604019468 0.09961664519635666 0
0.9342814134137036 -0.04874431842116946 0
0.7652403157364207 -0.0500957832319319 0
0.7771686843319889 -0.06844870537926183 0
0.8047835755926335 -0.04137038026521274 0
0.6270512433698977 -0.06010573798907634 0
0.6187995519486669 -0.08154490608870696 0
0.6736961677158627 -0.08110787217465447 0
1.277277101917194 -0.01824365636717723 0
1.249728809270885 -0.08059948211564566 0
1.279311447587927 -0.06477151819839359 0
1.329695573353193 -0.06103850365436623 0
1.41630101068577 -0.05776587773066294 0
1.246487570414292 -0.0510065612937855 0
1.212923961225356 -0.01060500547185683 0
1.176792651995127 -0.04574689588402711 0
1.166445109668399 -0.008698499768447554 0
1.130511568826305 0.00276673677954872 0
1.324459107603105 -0.1113072261811706 0
1.363884339170261 -0.09682366185639085 0
0.7465587706384403 -0.04966468559959649 0
0.1529229754104541 0.06906288885812324 0
0.1570259466318061 0.09675223119515867 0
0.1905391415950671 0.09339712778549025 0
0.3170425929332756 0.102504833725732 0
0.2885545810010149 0.09774175781463136 0
0.2980376018654564 -0.1103452180201489 0
0.6677806979535093 -0.05714424451599506 0
1.244257920662198 -0.8442528528750315 0
0.8343038098084189 -0.7170012467222397 0
0.4649109579898368 -0.7423326383896063 0
0.2794542167690778 -1.08969626641067 0
0.0826233849344592 -0.825697538905344 0
-0.05151438885822884 -1.159367857974514 0
0.2382973739118362 -0.5669053798429136 0
-0.05935454594187953 -0.5343412765895531 0
-0.3429424938568191 -0.8612757494464279 0
-0.4176778954951013 -0.5065479270523845 0
-0.1981142190993879 -0.283143523574497 0
-0.4742067319846629 -0.2044750342253149 0
-0.7929843169408539 -0.4450199160761986 0
-0.14260757535115 -0.1209628016612974 0
-0.002272799844799639 -0.306052803738271 0
-0.8232106881206545 -0.04649360513342873 0
-1.147835243647884 -0.3086196499657533 0
-0.0615635088141937 -0.07733193521301467 0
-0.06184146436630387 -0.1837866563209047 0
-0.003376100151552063 -0.1261720251311287 0
0.06676609711454609 -0.06506110330248327 0
0.03394527775885312 -0.2015455626204104 0
-0.2538472061120235 -0.1406248514248623 0
-1.144020626142104 -0.8185028028715043 0
0.6479593569310098 -0.5549294417994293 0
0.831974755491888 -0.4513476343042875 0
1.093101264737681 -0.513397713801485 0
1.415711724032226 -0.5303967423263378 0
0.9659202405655275 -0.3444030932855753 0
1.233999977363945 -0.370381312272767 0
0.4888847684637982 -0.4613935569120116 0
1.187930548359289 -0.2592167039596494 0
0.08925121265965451 0.05887369118883044 0
0.5892059163539235 -0.06965401243807152 0
1.06054853449797 0.0461329336722475 0
0.4681265170248443 -0.07446839216462776 0
0.4799723691485033 -0.09848567727423302 0
0.509245380159875 -0.08849762472864101 0
0.1302726100632146 0.06846998516479785 0
0.5084353898501818 -0.0664886320433119 0
1.227519007573579 -0.1553095057877174 0
0.2894040252726131 0.07499184000441124 0
0.4292706485010173 -0.07409658666338607 0
0.4171083239404482 -0.09949553516026513 0
0.3894410744213825 -0.07569409341746518 0
0.1908666449082851 0.07193120674090672 0
0.4294657934389953 0.07688329430728685 0
0.443807053112693 0.104079325266639 0
0.4773109102239914 0.1347129753285032 0
0.4721606655868862 0.09307367350189077 0
0.9927241980508923 -0.04981659010088985 0
0.5493363270213426 -0.06876696088483951 0
0.5391954372548911 -0.09169063602089765 0
0.3125728188766653 -0.08144262170535382 0
0.3495623019650729 -0.07679459331101059 0
0.3407921799624042 -0.1026830395143142 0
0.2703948288782771 0.07963593166713989 0
0.2321774292685959 0.0810612169395496 0
0.2192693877152642 0.1052450023829256 0
0.2561359505152998 0.1036461236256946 0
0.2666993086738808 -0.07643445624208886 0
0.2645979779277537 -0.09850615210447469 0
0.2284841314355006 -0.09924609552482931 0
0.2292571800675932 -0.07453210516670047 0
0.3897077576394178 0.08375634195795663 0
0.4700912236828952 0.07023347052811668 0
0.4940284095020823 0.8311970355132736 0
0.5469824698847415 0.06875264253222545 0
0.7071359555504191 -0.05446309830070593 0
0.506750237343233 0.07000894931755475 0
0.5055438482984127 0.09479951953083099 0
0.8015300190384715 0.3926434106905227 0
0.6636131331853153 0.06377417924490608 0
0.7150713059070846 0.08384964668578335 0
0.7079051241354334 0.05311458474305297 0
1.266307692814218 -0.1664534618122371 0
-0.05588424956030511 -0.02395704695068711 0
-0.01251024703278041 -0.06167181092074508 0
0.03568391833913689 -0.08607319123246122 0
0.08226518964734414 -0.09825677100814931 0
0.120064072303238 -0.2577186141711518 0
0.1468738933963635 -0.3885245804203354 0
0.2825780435281698 -0.4008446063848002 0
0.05145805255044014 -0.1364206879759488 0
0.6287273093563051 0.06043586096521072 0
0.5890948173650544 0.06373943310077296 0
0.7505021366839545 0.05293597937817335 0
0.7865026414360803 0.0504921384084191 0
0.812035967934671 0.04979865208832594 0
0.08852425660863029 -0.06403891109520916 0
0.7341532271681634 -0.3379174273310519 0
0.6253317987843163 0.6396094457702112 0
-0.9322208809676402 0.3863170698031749 0
0.1062137665767094 -0.07140433702159928 0
0.1232855562929074 -0.09646738410672935 0
0.2285698225075753 0.6848180296341552 0
0.1466538614721985 -0.07705611532437545 0
0.156419492014308 -0.1113788214115865 0
1.307961923082392 -0.1770936170308443 0
1.305025370319205 -0.2104491709540007 0
1.261057228869116 -0.252871720587496 0
1.34289615238368 -0.2086689326263525 0
1.337076361032175 -0.2786076580316522 0
1.372499332980326 -0.2029525921998034 0
1.122054671404398 -0.03294520420518581 0
1.103146279565352 -0.0235138785887637 0
1.092131690476192 0.01344022706952735 0
1.057830134147508 0.002223915114272135 0
0.9565464226090651 0.4411720668899131 0
0.6039675068991675 0.0831035771042346 0
0.8654971476119449 -0.1740463004048827 0
0.9093801477715108 -0.2364396354996306 0
0.995747786626252 -0.09881262380670278 0
1.002199582668491 -0.1301217764104788 0
0.5419249594030684 0.09157077332099559 0
-0.5440817491425128 0.01149480618520698 0
0.7816711645915131 -0.09594115441435802 0
1.358857389698631 -0.1892755299458669 0
-0.3315782189536031 -0.03860408018456266 0
0.1954920580799706 -1.521828808715163 0
1.03539531229075 0.02698078549121626 0
1.009514605269751 0.0560334249504674 0
1.0092787429013 0.0176611825631669 0
1.18877708862687 -0.1442454107879751 0
1.397905385362695 -0.1115910632565243 0
1.39428309856695 -0.1529433317966118 0
-0.6924724108361886 -0.753031639386012 0
0.1905593897605322 -0.09679187120545193 0
-0.3708073825011994 -1.448242860395113 0
0.9161757518739024 -0.09270568838338884 0
0.04669367927244894 -0.05506450480852696 0
0.9154203947673859 -0.04391831771728016 0
-0.2431117960695481 0.1675742911739278 0
1.132624589314641 -0.1228810593924997 0
0.504903800308415 -0.3414247076165676 0
1.038839259973882 0.2994782072002166 0
-0.03273912701459929 0.000130918938142686 0
0.7535969673471149 -0.2447469845551614 0
0.005255796299693785 -0.03721183190346999 0
1.041057936393333 -0.01494037994770807 0
0.8047837695848128 -0.06406910780663566 0
0.7444630043723528 0.07430186943219311 0
0.8359594891262727 -0.3057842353908862 0
1.057479389644505 -0.02260074864102999 0
0.3297292146615354 0.07832326843341662 0
0.3088576095663603 -0.2946049825095671 0
0.9119122014148179 -0.06290698533227533 0
-0.2038312345574718 0.2768743969718079 0
1.172992834118336 0.02797318561343572 0
0.9695266045802665 0.05776885317632531 0
0.9548398050965476 0.03041283491900516 0
0.7805075175958027 0.8151658771111965 0
0.9293178261842256 0.06605575196801726 0
-0.005432710165762665 0.7993752739670559 0
1.193660587603391 -0.1646629889833248 0
1.172596507476434 -0.1359918509413698 0
-0.361741728396958 0.2640310791080666 0
-0.4573190011647286 0.4133591346897426 0
0.856394904404767 -0.05397543408296734 0
1.053532583331323 -0.03747300759981424 0
1.011304446696792 0.6711731077016996 0
0.1925086574804066 0.1292735954563895 0
0.200417743417692 0.1717508726362827 0
0.3344614467063212 0.383687086486894 0
0.9051741534368554 0.04622725102980793 0
0.8805390035045699 0.06653223075767538 0
0.8619807399928036 0.04533070573876466 0
0.8397404348062475 0.06551338696736606 0
0.902196443035887 0.1023700904271064 0
0.4146573466611386 -0.1315777964963879 0
0.1901547576952503 -0.07341538399704667 0
-1.556736725215083 -0.1272818548424987 0
0.8503535539697817 0.03123488853952159 0
1.016324790598293 1.023908720419553 0
0.3513270385331713 0.07856306752238004 0
0.813091427907874 1.365555660619872 0
0.4140696508027255 0.09945348301683177 0
0.5657353053052737 -0.08621944891732167 0
0.1121897439492636 0.09285673340042126 0
0.9046663477772857 0.02878846335278956 0
-0.3947257662062407 0.6201855961925105 0
0.07071756034877748 0.1213127327768399 0
0.6402908908751452 0.08156501454285195 0
0.4494244731730245 -0.09112412536652005 0
0.3649998381250637 0.09762503496733554 0
0.3787797612658535 -0.09730933768373698 0
1.021369336469379 -0.03858089256589998 0
-0.1011957804438209 0.03645468152371494 0
0.7693328105816977 0.07042705437763128 0
1.221244743538983 -0.2150087267987881 0
-0.965356342592921 1.267346924712057 0
-0.5317944532397156 1.451656339428498 0
1.343974158443485 -0.1864218629940664 0
-0.1285094228208841 0.3780110313645131 0
0.460984543042384 1.125324740604744 0
$EndNodes
$Elements
7 1224 1 1224
1 1 1 102
1 1 7 
2 7 8 
3 8 9 
4 9 10 
5 10 11 
6 11 12 
7 12 13 
8 13 14 
9 14 15 
10 15 16 
11 16 17 
12 17 18 
13 18 19 
14 19 20 
15 20 21 
16 21 22 
17 22 23 
18 23 24 
19 24 25 
20 25 26 
21 26 27 
22 27 28 
23 28 29 
24 29 30 
25 30 31 
26 31 32 
27 32 33 
28 33 34 
29 34 35 
30 35 36 
31 36 37 
32 37 38 
33 38 39 
34 39 40 
35 40 41 
36 41 42 
37 42 43 
38 43 44 
39 44 45 
40 45 46 
41 46 47 
42 47 48 
43 48 49 
44 49 50 
45 50 51 
46 51 52 
47 52 53 
48 53 54 
49 54 55 
50 55 56 
51 56 57 
52 57 58 
53 58 59 
54 59 60 
55 60 61 
56 61 62 
57 62 63 
58 63 64 
59 64 65 
60 65 66 
61 66 67 
62 67 68 
63 68 69 
64 69 70 
65 70 71 
66 71 72 
67 72 73 
68 73 74 
69 74 75 
70 75 76 
71 76 77 
72 77 78 
73 78 79 
74 79 80 
75 80 81 
76 81 82 
77 82 83 
78 83 84 
79 84 85 
80 85 86 
81 86 87 
82 87 88 
83 88 89 
84 89 90 
85 90 91 
86 91 92 
87 92 93 
88 93 94 
89 94 95 
90 95 96 
91 96 97 
92 97 98 
93 98 99 
94 99 100 
95 100 101 
96 101 102 
97 102 103 
98 103 104 
99 104 105 
100 105 106 
101 106 107 
102 107 1 
1 2 1 40
103 2 108 
104 108 109 
105 109 110 
106 110 111 
107 111 112 
108 112 113 
109 113 114 
110 114 115 
111 115 116 
112 116 117 
113 117 118 
114 118 119 
115 119 120 
116 120 121 
117 121 122 
118 122 123 
119 123 124 
120 124 125 
121 125 126 
122 126 127 
123 127 128 
124 128 129 
125 129 130 
126 130 131 
127 131 132 
128 132 133 
129 133 134 
130 134 135 
131 135 136 
132 136 137 
133 137 138 
134 138 139 
135 139 140 
136 140 141 
137 141 142 
138 142 143 
139 143 144 
140 144 145 
141 145 146 
142 146 2 
1 10 1 4
143 3 147 
144 147 148 
145 148 149 
146 149 4 
1 11 1 4
147 4 150 
148 150 151 
149 151 152 
150 152 5 
1 12 1 4
151 5 153 
152 153 154 
153 154 155 
154 155 6 
1 13 1 4
155 6 156 
156 156 157 
157 157 158 
158 158 3 
2 1 2 1066
159 519 127 520 
160 114 209 404 
161 419 418 441 
162 271 269 350 
163 362 446 448 
164 122 234 407 
165 118 210 398 
166 317 346 485 
167 198 300 301 
168 209 116 398 
169 210 120 407 
170 322 326 333 
171 346 317 396 
172 234 125 542 
173 261 258 465 
174 175 222 570 
175 496 344 511 
176 430 427 435 
177 152 172 230 
178 395 306 450 
179 254 258 261 
180 323 441 507 
181 187 185 390 
182 294 224 386 
183 273 292 293 
184 494 286 555 
185 50 51 589 
186 205 529 530 
187 316 319 322 
188 207 211 231 
189 258 260 262 
190 273 282 292 
191 221 175 570 
192 346 159 485 
193 172 5 588 
194 415 328 478 
195 529 190 530 
196 410 411 455 
197 248 54 567 
198 254 261 365 
199 282 284 604 
200 460 161 461 
201 156 177 536 
202 423 447 499 
203 328 477 478 
204 159 346 347 
205 156 157 177 
206 328 415 470 
207 59 60 218 
208 486 251 487 
209 224 293 360 
210 484 367 531 
211 443 444 446 
212 262 265 278 
213 254 256 258 
214 185 218 390 
215 243 244 249 
216 177 157 417 
217 505 247 584 
218 181 170 182 
219 268 294 449 
220 342 471 602 
221 352 393 557 
222 368 261 465 
223 454 325 469 
224 405 403 565 
225 327 470 472 
226 3 147 207 
227 175 4 608 
228 401 400 408 
229 177 417 418 
230 258 262 274 
231 429 440 543 
232 195 214 296 
233 265 267 579 
234 447 335 499 
235 318 312 385 
236 287 284 535 
237 367 366 531 
238 421 424 425 
239 207 231 233 
240 273 293 598 
241 250 254 365 
242 443 362 445 
243 235 233 239 
244 154 155 173 
245 325 320 469 
246 152 5 172 
247 159 347 409 
248 353 352 557 
249 320 318 387 
250 245 389 489 
251 366 367 526 
252 336 330 341 
253 427 431 435 
254 286 494 495 
255 347 391 409 
256 58 170 181 
257 193 527 528 
258 243 249 295 
259 179 371 372 
260 57 184 539 
261 183 146 199 
262 198 301 302 
263 367 502 526 
264 338 478 479 
265 289 494 555 
266 257 350 580 
267 312 310 346 
268 181 182 206 
269 153 433 588 
270 194 193 528 
271 60 163 218 
272 425 424 426 
273 173 155 545 
274 433 153 440 
275 167 501 526 
276 421 419 423 
277 179 372 375 
278 583 247 589 
279 246 489 599 
280 177 418 419 
281 385 305 395 
282 220 175 221 
283 448 446 517 
284 249 250 277 
285 423 419 447 
286 248 567 569 
287 397 399 400 
288 278 349 476 
289 378 380 516 
290 424 423 498 
291 303 301 353 
292 300 198 546 
293 170 59 218 
294 151 152 230 
295 277 365 389 
296 312 346 396 
297 426 424 427 
298 350 257 512 
299 239 238 397 
300 272 273 598 
301 189 203 546 
302 195 296 467 
303 267 270 272 
304 470 415 472 
305 206 182 467 
306 429 433 440 
307 344 496 500 
308 4 175 220 
309 274 262 363 
310 302 301 303 
311 258 256 260 
312 233 236 238 
313 282 291 292 
314 310 304 533 
315 365 388 389 
316 228 229 573 
317 222 225 597 
318 267 272 276 
319 235 239 401 
320 422 425 545 
321 212 255 488 
322 205 219 529 
323 338 336 415 
324 192 196 530 
325 322 333 551 
326 425 173 545 
327 411 412 578 
328 445 528 559 
329 242 243 585 
330 336 341 472 
331 441 323 447 
332 57 58 181 
333 313 312 318 
334 331 511 513 
335 414 278 476 
336 179 375 572 
337 311 310 312 
338 3 207 235 
339 183 199 200 
340 432 172 433 
341 165 414 458 
342 427 430 439 
343 343 338 479 
344 362 443 446 
345 236 237 241 
346 319 318 320 
347 184 216 539 
348 203 187 390 
349 391 347 392 
350 435 431 438 
351 329 325 453 
352 460 461 602 
353 262 260 265 
354 229 284 549 
355 524 216 556 
356 517 446 519 
357 154 173 440 
358 427 424 431 
359 243 232 244 
360 420 419 421 
361 387 395 450 
362 307 309 527 
363 432 228 509 
364 217 524 560 
365 455 411 595 
366 445 359 528 
367 581 569 582 
368 471 472 602 
369 230 172 509 
370 233 231 236 
371 55 56 567 
372 223 350 512 
373 329 453 600 
374 237 232 243 
375 223 271 350 
376 273 281 282 
377 200 199 214 
378 446 444 519 
379 474 263 476 
380 537 451 538 
381 294 268 595 
382 305 385 396 
383 294 595 598 
384 276 272 381 
385 334 330 336 
386 337 336 338 
387 515 378 516 
388 441 442 507 
389 202 215 603 
390 182 170 185 
391 106 107 555 
392 321 320 325 
393 57 181 184 
394 546 203 563 
395 450 160 594 
396 225 226 597 
397 525 231 577 
398 262 348 363 
399 172 432 509 
400 365 261 366 
401 258 274 465 
402 431 424 498 
403 284 229 535 
404 289 493 494 
405 308 304 310 
406 214 195 219 
407 448 517 606 
408 108 560 576 
409 428 427 439 
410 184 181 206 
411 208 404 405 
412 487 251 531 
413 389 245 490 
414 184 206 215 
415 413 165 561 
416 315 459 600 
417 4 150 608 
418 344 343 514 
419 316 322 323 
420 440 173 543 
421 286 495 547 
422 58 59 170 
423 518 516 519 
424 421 423 424 
425 384 504 505 
426 157 158 417 
427 201 2 202 
428 198 191 546 
429 518 520 534 
430 185 170 218 
431 222 175 225 
432 51 583 589 
433 60 61 163 
434 238 240 565 
435 265 266 267 
436 239 397 400 
437 296 206 467 
438 403 238 565 
439 533 303 557 
440 397 238 403 
441 278 265 349 
442 489 389 599 
443 384 505 584 
444 438 344 500 
445 385 312 396 
446 442 445 559 
447 61 62 297 
448 272 270 273 
449 249 244 250 
450 276 381 411 
451 209 403 404 
452 341 460 602 
453 249 277 382 
454 163 61 297 
455 392 533 557 
456 326 325 329 
457 422 421 425 
458 380 378 492 
459 200 214 219 
460 259 481 601 
461 442 443 445 
462 506 496 510 
463 289 1 553 
464 472 341 602 
465 62 63 171 
466 490 245 491 
467 383 490 491 
468 182 185 186 
469 240 236 241 
470 249 382 384 
471 400 210 407 
472 169 566 567 
473 495 437 547 
474 263 473 476 
475 526 501 599 
476 295 249 384 
477 147 148 211 
478 197 354 355 
479 415 336 472 
480 198 302 527 
481 300 546 563 
482 357 196 361 
483 239 400 401 
484 293 224 294 
485 262 278 348 
486 241 242 538 
487 63 64 351 
488 1 290 553 
489 146 2 199 
490 282 281 284 
491 51 213 583 
492 62 171 297 
493 293 292 360 
494 199 2 201 
495 151 230 607 
496 238 236 240 
497 207 147 211 
498 218 163 390 
499 145 146 183 
500 177 419 420 
501 406 240 523 
502 335 447 551 
503 437 496 506 
504 247 583 584 
505 481 275 593 
506 64 65 162 
507 220 221 611 
508 417 158 444 
509 447 323 551 
510 214 201 296 
511 303 353 557 
512 332 513 514 
513 229 228 532 
514 197 355 356 
515 373 379 457 
516 192 194 196 
517 379 178 457 
518 193 191 198 
519 521 406 522 
520 208 406 521 
521 215 206 603 
522 339 344 497 
523 267 269 270 
524 250 253 254 
525 309 554 559 
526 183 204 354 
527 165 413 414 
528 144 145 354 
529 538 169 539 
530 255 212 508 
531 223 512 570 
532 284 285 604 
533 541 234 542 
534 171 63 351 
535 186 195 467 
536 277 250 365 
537 254 255 256 
538 196 357 369 
539 536 422 545 
540 311 312 313 
541 186 185 187 
542 483 257 508 
543 371 358 372 
544 527 309 528 
545 346 310 347 
546 199 201 214 
547 186 188 195 
548 191 189 546 
549 206 296 603 
550 582 295 584 
551 201 202 603 
552 149 4 220 
553 313 318 319 
554 334 336 337 
555 595 381 598 
556 465 464 466 
557 513 511 514 
558 418 417 443 
559 503 168 605 
560 338 415 478 
561 419 441 447 
562 64 162 351 
563 148 149 592 
564 459 460 600 
565 190 192 530 
566 308 310 311 
567 339 338 343 
568 319 320 321 
569 215 202 556 
570 387 450 594 
571 216 524 537 
572 538 242 566 
573 65 66 352 
574 196 359 361 
575 5 153 588 
576 274 464 465 
577 285 430 434 
578 302 303 304 
579 155 6 545 
580 189 187 203 
581 366 368 531 
582 276 411 578 
583 169 538 566 
584 145 183 354 
585 257 483 512 
586 364 413 561 
587 479 345 544 
588 271 223 279 
589 6 156 536 
590 475 474 476 
591 240 241 451 
592 402 397 403 
593 356 358 371 
594 197 356 370 
595 241 237 242 
596 344 438 497 
597 256 257 580 
598 217 523 524 
599 567 566 569 
600 66 67 393 
601 226 228 574 
602 363 481 593 
603 398 210 399 
604 240 451 523 
605 481 363 601 
606 107 289 555 
607 153 154 440 
608 207 233 235 
609 209 398 402 
610 411 381 595 
611 108 217 560 
612 426 427 428 
613 393 164 557 
614 443 417 444 
615 56 169 567 
616 182 186 467 
617 437 495 496 
618 354 204 355 
619 217 522 523 
620 282 288 291 
621 295 582 585 
622 321 325 326 
623 366 261 368 
624 6 536 545 
625 330 329 586 
626 407 234 408 
627 150 151 607 
628 67 68 164 
629 288 290 291 
630 285 284 287 
631 436 438 500 
632 297 171 298 
633 390 548 563 
634 290 288 553 
635 428 439 535 
636 178 380 492 
637 434 436 494 
638 184 215 216 
639 242 237 243 
640 68 69 391 
641 143 144 197 
642 74 75 305 
643 228 432 532 
644 299 171 351 
645 452 315 600 
646 420 421 422 
647 73 74 416 
648 464 274 593 
649 162 65 352 
650 273 280 281 
651 228 226 509 
652 348 278 413 
653 186 187 188 
654 75 76 394 
655 108 109 217 
656 511 344 514 
657 387 318 395 
658 72 73 317 
659 142 143 370 
660 365 366 388 
661 339 343 344 
662 326 329 330 
663 298 171 299 
664 304 303 533 
665 226 225 230 
666 318 385 395 
667 285 434 493 
668 374 362 448 
669 473 414 476 
670 286 106 555 
671 265 260 266 
672 76 77 306 
673 81 82 456 
674 413 278 414 
675 333 335 551 
676 82 83 314 
677 285 287 430 
678 429 428 432 
679 83 84 452 
680 377 518 609 
681 434 435 436 
682 80 81 324 
683 15 16 176 
684 77 78 450 
685 7 283 290 
686 178 379 380 
687 79 80 468 
688 490 383 558 
689 136 137 457 
690 85 86 459 
691 382 277 490 
692 84 85 315 
693 353 301 575 
694 69 70 409 
695 247 49 589 
696 433 172 588 
697 137 138 373 
698 141 142 550 
699 368 465 487 
700 10 11 386 
701 22 23 165 
702 135 136 178 
703 86 87 161 
704 323 322 551 
705 556 202 560 
706 71 72 485 
707 87 88 461 
708 29 30 166 
709 78 79 160 
710 233 238 239 
711 208 405 406 
712 302 307 527 
713 140 141 179 
714 347 310 533 
715 16 17 462 
716 89 90 471 
717 138 139 540 
718 493 289 553 
719 211 148 590 
720 9 10 224 
721 275 463 593 
722 90 91 327 
723 183 200 204 
724 88 89 342 
725 460 341 586 
726 91 92 470 
727 28 29 463 
728 292 283 360 
729 30 31 482 
730 14 15 410 
731 17 18 264 
732 21 22 458 
733 229 532 535 
734 267 266 269 
735 93 94 477 
736 27 28 275 
737 196 194 359 
738 264 474 475 
739 26 27 481 
740 18 19 474 
741 25 26 259 
742 20 21 473 
743 51 52 213 
744 432 428 532 
745 134 135 492 
746 92 93 328 
747 13 14 455 
748 226 230 509 
749 31 32 252 
750 197 144 354 
751 104 105 547 
752 19 20 263 
753 12 13 268 
754 203 390 563 
755 300 299 301 
756 94 95 174 
757 512 221 570 
758 384 382 605 
759 301 299 575 
760 356 357 358 
761 379 373 571 
762 591 259 601 
763 35 36 367 
764 231 211 577 
765 70 71 159 
766 32 33 486 
767 582 569 585 
768 337 338 339 
769 105 106 286 
770 352 66 393 
771 516 517 519 
772 592 220 611 
773 169 57 539 
774 316 507 554 
775 202 2 576 
776 34 35 484 
777 524 556 560 
778 370 356 371 
779 95 96 480 
780 341 330 586 
781 314 454 456 
782 36 37 502 
783 388 366 526 
784 454 324 456 
785 11 12 449 
786 33 34 251 
787 41 42 245 
788 42 43 491 
789 43 44 383 
790 56 57 169 
791 382 490 558 
792 296 201 603 
793 40 41 489 
794 2 108 576 
795 44 45 503 
796 453 325 454 
797 23 24 561 
798 45 46 168 
799 39 40 246 
800 305 396 416 
801 324 454 469 
802 37 38 167 
803 38 39 501 
804 465 466 487 
805 46 47 504 
806 205 200 219 
807 139 140 572 
808 164 392 557 
809 314 453 454 
810 333 330 334 
811 504 384 605 
812 133 134 378 
813 47 48 505 
814 363 348 601 
815 396 317 416 
816 188 187 189 
817 357 355 369 
818 307 304 308 
819 412 176 462 
820 522 406 523 
821 412 264 475 
822 332 514 544 
823 298 299 300 
824 48 49 247 
825 168 504 605 
826 256 255 257 
827 279 227 610 
828 517 380 606 
829 162 352 353 
830 96 97 345 
831 316 323 507 
832 254 253 255 
833 53 54 248 
834 250 244 253 
835 204 200 205 
836 426 428 429 
837 180 592 611 
838 109 110 522 
839 132 133 515 
840 8 9 360 
841 67 164 393 
842 163 297 548 
843 429 432 433 
844 252 486 487 
845 510 496 511 
846 97 98 587 
847 264 412 462 
848 494 436 495 
849 372 374 376 
850 52 53 596 
851 227 279 597 
852 270 269 271 
853 392 347 533 
854 1 7 290 
855 560 202 576 
856 251 484 531 
857 399 397 402 
858 7 8 283 
859 160 468 594 
860 525 232 552 
861 297 298 548 
862 453 452 600 
863 216 537 539 
864 355 204 369 
865 356 355 357 
866 516 380 517 
867 24 25 591 
868 498 423 499 
869 451 241 538 
870 273 270 280 
871 340 339 497 
872 236 231 552 
873 204 205 369 
874 370 371 550 
875 349 265 579 
876 469 320 594 
877 131 132 377 
878 193 198 527 
879 107 1 289 
880 101 102 510 
881 411 176 412 
882 438 431 497 
883 460 329 600 
884 420 422 536 
885 99 100 513 
886 271 279 610 
887 143 197 370 
888 302 304 307 
889 188 189 190 
890 164 68 391 
891 497 431 498 
892 102 103 506 
893 192 191 193 
894 466 252 487 
895 389 388 599 
896 98 99 332 
897 404 403 405 
898 192 193 194 
899 583 582 584 
900 401 408 541 
901 466 166 482 
902 190 189 191 
903 558 503 605 
904 103 104 437 
905 237 236 552 
906 371 179 550 
907 100 101 331 
908 74 305 416 
909 190 191 192 
910 369 205 530 
911 441 418 442 
912 554 507 559 
913 331 510 511 
914 305 75 394 
915 537 538 539 
916 110 111 521 
917 281 280 564 
918 130 131 609 
919 442 418 443 
920 311 313 316 
921 317 73 416 
922 270 271 280 
923 436 435 438 
924 298 300 563 
925 434 430 435 
926 252 466 482 
927 358 357 361 
928 464 166 466 
929 425 426 543 
930 142 370 550 
931 123 124 234 
932 260 256 580 
933 319 321 322 
934 195 188 529 
935 390 163 548 
936 173 425 543 
937 307 308 309 
938 117 118 398 
939 76 306 394 
940 269 266 350 
941 113 114 404 
942 119 120 210 
943 164 391 392 
944 326 330 333 
945 121 122 407 
946 463 464 593 
947 219 195 529 
948 391 69 409 
949 320 387 594 
950 248 569 581 
951 232 237 552 
952 115 116 209 
953 111 112 208 
954 129 130 534 
955 213 581 582 
956 257 255 508 
957 590 148 592 
958 82 314 456 
959 306 77 450 
960 324 81 456 
961 72 317 485 
962 267 276 579 
963 314 83 452 
964 364 591 601 
965 150 607 608 
966 290 283 291 
967 125 126 542 
968 333 334 335 
969 375 372 376 
970 284 281 549 
971 179 141 550 
972 523 451 524 
973 80 324 468 
974 84 315 452 
975 176 16 462 
976 209 402 403 
977 244 232 488 
978 483 508 568 
979 315 85 459 
980 217 109 522 
981 399 210 400 
982 137 373 457 
983 128 129 520 
984 373 138 540 
985 78 160 450 
986 15 176 410 
987 160 79 468 
988 468 469 594 
989 178 136 457 
990 86 161 459 
991 361 362 374 
992 213 582 583 
993 394 306 395 
994 291 283 292 
995 478 174 479 
996 49 50 589 
997 161 87 461 
998 224 10 386 
999 514 343 544 
1000 483 221 512 
1001 231 525 552 
1002 479 174 480 
1003 140 179 572 
1004 540 139 572 
1005 277 389 490 
1006 400 407 408 
1007 274 363 593 
1008 149 220 592 
1009 29 166 463 
1010 351 162 575 
1011 17 264 462 
1012 22 165 458 
1013 88 342 461 
1014 166 30 482 
1015 340 498 499 
1016 532 428 535 
1017 358 361 374 
1018 383 503 558 
1019 90 327 471 
1020 342 89 471 
1021 337 339 340 
1022 288 285 493 
1023 253 244 488 
1024 544 345 587 
1025 327 91 470 
1026 468 324 469 
1027 243 295 585 
1028 135 178 492 
1029 377 516 518 
1030 14 410 455 
1031 499 335 562 
1032 314 452 453 
1033 408 234 541 
1034 340 499 562 
1035 165 23 561 
1036 9 224 360 
1037 398 399 402 
1038 308 311 554 
1039 275 28 463 
1040 376 374 448 
1041 549 281 564 
1042 264 18 474 
1043 329 460 586 
1044 188 190 529 
1045 70 159 409 
1046 340 497 498 
1047 21 458 473 
1048 92 328 470 
1049 159 71 485 
1050 345 479 480 
1051 162 353 575 
1052 268 13 455 
1053 31 252 482 
1054 508 212 568 
1055 279 222 597 
1056 27 275 481 
1057 259 26 481 
1058 328 93 477 
1059 459 161 460 
1060 19 263 474 
1061 196 369 530 
1062 263 20 473 
1063 386 11 449 
1064 94 174 477 
1065 548 298 563 
1066 426 429 543 
1067 228 573 574 
1068 279 223 570 
1069 332 544 587 
1070 12 268 449 
1071 283 8 360 
1072 252 32 486 
1073 105 286 547 
1074 293 294 598 
1075 25 259 591 
1076 410 176 411 
1077 216 215 556 
1078 343 479 544 
1079 364 348 413 
1080 174 95 480 
1081 471 327 472 
1082 268 455 595 
1083 295 384 584 
1084 230 225 607 
1085 463 166 464 
1086 349 475 476 
1087 430 287 439 
1088 225 175 608 
1089 35 367 484 
1090 388 526 599 
1091 367 36 502 
1092 33 251 486 
1093 561 24 591 
1094 266 260 580 
1095 378 134 492 
1096 251 34 484 
1097 528 309 559 
1098 477 174 478 
1099 375 376 571 
1100 496 495 500 
1101 213 52 596 
1102 245 42 491 
1103 37 167 502 
1104 41 245 489 
1105 43 383 491 
1106 549 564 573 
1107 383 44 503 
1108 334 337 562 
1109 246 40 489 
1110 45 168 503 
1111 461 342 602 
1112 372 358 374 
1113 39 246 501 
1114 167 38 501 
1115 168 46 504 
1116 240 406 565 
1117 504 47 505 
1118 96 345 480 
1119 493 434 494 
1120 488 232 525 
1121 368 487 531 
1122 502 167 526 
1123 381 272 598 
1124 222 279 570 
1125 361 359 362 
1126 48 247 505 
1127 309 308 554 
1128 501 246 599 
1129 133 378 515 
1130 507 442 559 
1131 437 104 547 
1132 406 405 565 
1133 299 351 575 
1134 53 248 596 
1135 412 475 578 
1136 345 97 587 
1137 285 288 604 
1138 524 451 537 
1139 439 287 535 
1140 110 521 522 
1141 180 483 568 
1142 335 334 562 
1143 350 266 580 
1144 288 282 604 
1145 362 359 445 
1146 311 316 554 
1147 377 132 515 
1148 288 493 553 
1149 581 213 596 
1150 380 379 606 
1151 229 549 573 
1152 98 332 587 
1153 569 242 585 
1154 221 483 611 
1155 102 506 510 
1156 103 437 506 
1157 332 99 513 
1158 331 101 510 
1159 574 227 597 
1160 248 581 596 
1161 100 331 513 
1162 376 448 606 
1163 337 340 562 
1164 131 377 609 
1165 376 379 571 
1166 573 227 574 
1167 607 225 608 
1168 458 414 473 
1169 111 208 521 
1170 280 271 610 
1171 180 590 592 
1172 578 349 579 
1173 495 436 500 
1174 348 364 601 
1175 373 540 571 
1176 564 280 610 
1177 377 515 516 
1178 276 578 579 
1179 534 130 609 
1180 475 349 578 
1181 483 180 611 
1182 568 212 577 
1183 212 488 525 
1184 212 525 577 
1185 566 242 569 
1186 227 564 610 
1187 520 129 534 
1188 375 540 572 
1189 564 227 573 
1190 294 386 449 
1191 226 574 597 
1192 540 375 571 
1193 568 577 590 
1194 518 534 609 
1195 379 376 606 
1196 364 561 591 
1197 180 568 590 
1198 577 211 590 
1199 382 558 605 
1200 114 115 209 
1201 116 117 398 
1202 118 119 210 
1203 120 121 407 
1204 122 123 234 
1205 127 158 3 
1206 127 3 235 
1207 54 55 567 
1208 112 113 404 
1209 208 112 404 
1210 124 125 234 
1211 126 127 542 
1212 127 128 520 
1213 158 127 444 
1214 127 235 401 
1215 127 401 541 
1216 444 127 519 
1217 127 541 542 
1218 177 420 536 
1219 359 194 528 
1220 255 253 488 
1221 305 394 395 
1222 316 313 319 
1223 322 321 326 
1224 518 519 520 
$EndElements
