$MeshFormat
4.1 0 8
$EndMeshFormat
$PhysicalNames
5
1 1 "bottom"
1 2 "right"
1 3 "top"
1 4 "left"
2 5 "domain"
$EndPhysicalNames
$Entities
8 8 1 0
1 0 0 0 0 
2 1 0 0 0 
3 1 -1 0 0 
4 2 -1 0 0 
5 2 0 0 0 
6 2 1 0 0 
7 1 1 0 0 
8 0 1 0 0 
1 0 0 0 1 0 0 1 1 2 1 -2 
2 1 -1 0 1 0 0 1 4 2 2 -3 
3 1 -1 0 2 -1 0 1 1 2 3 -4 
4 2 -1 0 2 0 0 1 2 2 4 -5 
5 2 0 0 2 1 0 1 2 2 5 -6 
6 1 1 0 2 1 0 1 3 2 6 -7 
7 0 1 0 1 1 0 1 3 2 7 -8 
8 0 0 0 0 1 0 1 4 2 8 -1 
1 0 -1 0 2 1 0 1 5 8 1 2 3 4 5 6 7 8 
$EndEntities
$Nodes
17 408 1 408
0 1 0 1
1
0 0 0
0 2 0 1
2
1 0 0
0 3 0 1
3
1 -1 0
0 4 0 1
4
2 -1 0
0 5 0 1
5
2 0 0
0 6 0 1
6
2 1 0
0 7 0 1
7
1 1 0
0 8 0 1
8
0 1 0
1 1 0 9
9
10
11
12
13
14
15
16
17
0.09999999999981468 0 0
0.1999999999995579 0 0
0.2999999999992664 0 0
0.399999999998975 0 0
0.4999999999986943 0 0
0.5999999999989468 0 0
0.69999999999921 0 0
0.7999999999994734 0 0
0.8999999999997368 0 0
1 2 0 9
18
19
20
21
22
23
24
25
26
1 -0.09999999999981468 0
1 -0.1999999999995579 0
1 -0.2999999999992664 0
1 -0.399999999998975 0
1 -0.4999999999986943 0
1 -0.5999999999989468 0
1 -0.69999999999921 0
1 -0.7999999999994734 0
1 -0.8999999999997368 0
1 3 0 9
27
28
29
30
31
32
33
34
35
1.1 -1 0
1.2 -1 0
1.3 -1 0
1.4 -1 0
1.5 -1 0
1.6 -1 0
1.7 -1 0
1.8 -1 0
1.9 -1 0
1 4 0 9
36
37
38
39
40
41
42
43
44
2 -0.8999999999995836 0
2 -0.7999999999999998 0
2 -0.7000000000006934 0
2 -0.6000000000013869 0
2 -0.5000000000020587 0
2 -0.4000000000016644 0
2 -0.3000000000012483 0
2 -0.2000000000008322 0
2 -0.100000000000416 0
1 5 0 9
45
46
47
48
49
50
51
52
53
2 0.09999999999981468 0
2 0.1999999999995579 0
2 0.2999999999992664 0
2 0.399999999998975 0
2 0.4999999999986943 0
2 0.5999999999989468 0
2 0.69999999999921 0
2 0.7999999999994734 0
2 0.8999999999997368 0
1 6 0 9
54
55
56
57
58
59
60
61
62
1.9 1 0
1.8 1 0
1.7 1 0
1.6 1 0
1.5 1 0
1.4 1 0
1.3 1 0
1.2 1 0
1.1 1 0
1 7 0 9
63
64
65
66
67
68
69
70
71
0.8999999999995836 1 0
0.7999999999999998 1 0
0.7000000000006934 1 0
0.6000000000013869 1 0
0.5000000000020587 1 0
0.4000000000016644 1 0
0.3000000000012483 1 0
0.2000000000008322 1 0
0.100000000000416 1 0
1 8 0 9
72
73
74
75
76
77
78
79
80
0 0.8999999999995836 0
0 0.7999999999999998 0
0 0.7000000000006934 0
0 0.6000000000013869 0
0 0.5000000000020587 0
0 0.4000000000016644 0
0 0.3000000000012483 0
0 0.2000000000008322 0
0 0.100000000000416 0
2 1 0 328
81
82
83
84
85
86
87
88
89
90
91
92
93
94
95
96
97
98
99
100
101
102
103
104
105
106
107
108
109
110
111
112
113
114
115
116
117
118
119
120
121
122
123
124
125
126
127
128
129
130
131
132
133
134
135
136
137
138
139
140
141
142
143
144
145
146
147
148
149
150
151
152
153
154
155
156
157
158
159
160
161
162
163
164
165
166
167
168
169
170
171
172
173
174
175
176
177
178
179
180
181
182
183
184
185
186
187
188
189
190
191
192
193
194
195
196
197
198
199
200
201
202
203
204
205
206
207
208
209
210
211
212
213
214
215
216
217
218
219
220
221
222
223
224
225
226
227
228
229
230
231
232
233
234
235
236
237
238
239
240
241
242
243
244
245
246
247
248
249
250
251
252
253
254
255
256
257
258
259
260
261
262
263
264
265
266
267
268
269
270
271
272
273
274
275
276
277
278
279
280
281
282
283
284
285
286
287
288
289
290
291
292
293
294
295
296
297
298
299
300
301
302
303
304
305
306
307
308
309
310
311
312
313
314
315
316
317
318
319
320
321
322
323
324
325
326
327
328
329
330
331
332
333
334
335
336
337
338
339
340
341
342
343
344
345
346
347
348
349
350
351
352
353
354
355
356
357
358
359
360
361
362
363
364
365
366
367
368
369
370
371
372
373
374
375
376
377
378
379
380
381
382
383
384
385
386
387
388
389
390
391
392
393
394
395
396
397
398
399
400
401
402
403
404
405
406
407
408
1.921737490712347 0.3517640260533832 0
1.349079800098206 0.9111456979278689 0
0.744332542871299 0.9181466939759702 0
1.086602540378254 -0.04999999999991312 0
1.086602540378273 0.049999999999892 0
1.918092511950726 -0.4475303635255888 0
0.5499999999988205 0.08660254037843168 0
1.051111060895742 0.9201879362655614 0
1.086602540378068 -0.3499999999992989 0
0.8411063377216486 0.09107011357755015 0
1.921804296103248 -0.1475303635246719 0
0.4500000000016771 0.913397459621781 0
1.173205080756555 -3.214095656289828e-14 0
1.173205080756575 0.09999999999980226 0
1.453159709371576 -0.9152217186777999 0
1.259807621134891 0.04999999999985499 0
1.259807621134914 0.1499999999997314 0
1.173205080756576 0.1999999999996772 0
1.259807621134931 0.2499999999996285 0
0.0866025403783237 0.4500000000018615 0
1.346410161513263 0.09999999999977358 0
1.346410161513216 -1.537855491099786e-13 0
1.173205080756564 0.2999999999995813 0
1.913397459621333 0.6499999999990784 0
1.259807621134939 0.3499999999995383 0
1.433012701891637 0.04999999999977819 0
1.433012701891569 -0.05000000000020438 0
1.173205080756563 0.3999999999994961 0
1.086602540378326 -0.6499999999991529 0
1.259807621134941 0.4499999999994529 0
1.346410161513314 0.3999999999994977 0
1.654701891332864 0.9059343257941485 0
1.346410161513314 0.4999999999994097 0
1.433012701891679 0.4499999999994531 0
1.086602540378184 0.3499999999995347 0
1.086602540378171 0.4499999999994527 0
0.9999999999997963 0.3999999999995032 0
0.9999999999997776 0.4999999999994178 0
0.9133974596214202 0.4499999999994749 0
1.519615242270044 -2.601946436087133e-13 0
1.519615242269976 -0.1000000000002589 0
0.08660254037784325 0.6500000000010401 0
0.3499999999991207 0.08660254037819144 0
1.651453120623693 -0.9280236996274082 0
1.921737490712328 0.1482359739454328 0
1.519615242270087 0.09999999999973365 0
1.913397459622157 -0.6500000000010402 0
1.433012701891503 -0.150000000000186 0
1.519615242269883 -0.2000000000002441 0
1.433012701891438 -0.2500000000001407 0
1.519615242269791 -0.3000000000001908 0
1.433012701891362 -0.3500000000000831 0
1.519615242269711 -0.4000000000001232 0
1.433012701891275 -0.4500000000000093 0
1.51961524226963 -0.5000000000000538 0
1.433012701891677 0.549999999999369 0
1.519615242270058 0.4999999999994014 0
1.259807621134919 0.5499999999993671 0
1.433012701891191 -0.5499999999999465 0
0.9133974596214076 0.5499999999993618 0
0.826794919243092 0.4999999999994012 0
0.8267949192430901 0.3999999999995648 0
0.7401923788648082 0.4499999999995332 0
0.7401923788648221 0.5499999999992792 0
0.6535898384866021 0.4999999999994588 0
0.6535898384866385 0.599999999999135 0
0.5669872981084743 0.5499999999993213 0
0.5669872981084155 0.4499999999996763 0
0.4803847577303338 0.4999999999995544 0
0.4803847577302698 0.3999999999999398 0
1.520156394054488 0.6007771553898675 0
1.519615242269544 -0.5999999999999852 0
0.250844920009508 0.9157407221085655 0
1.241327434529038 -0.9103703875043299 0
0.07959225689676377 0.254021196768883 0
1.601522730318796 -0.3524696364762399 0
1.606217782648502 0.04999999999970726 0
1.606217782648542 0.1499999999996623 0
1.606217782647974 -0.5500000000000977 0
1.60488212932834 0.5476598894218188 0
0.4803847577303895 0.5999999999991495 0
0.3937822173522787 0.5499999999993969 0
0.9999999999997613 0.5999999999992993 0
0.740192378864764 0.3499999999997047 0
1.173205080756519 -0.0999999999998383 0
1.605995173761777 0.4496099815698112 0
1.346410161512816 -0.4999999999998901 0
1.346410161512728 -0.5999999999998697 0
0.9133974596214256 0.6499999999992091 0
1.601522730319048 -0.1475303635243595 0
0.3926982926415812 0.64812258732837 0
1.69113476737489 0.4970753420222049 0
1.434095993146697 0.6514182837418646 0
1.596746512096438 0.6513755129301348 0
1.603716820383399 -0.6543317937099183 0
1.433012701891679 0.3499999999995521 0
1.346410161512973 -0.3000000000000149 0
1.692502295603779 0.3994475539316162 0
0.9999999999998114 0.2999999999995429 0
0.4740576508136238 0.6913489603338109 0
0.306999022855784 0.5996870978874564 0
0.3071495679544833 0.499947849647719 0
1.692403495982207 -0.600721965618441 0
1.689833062543623 -0.7051740869312871 0
1.692820323026936 0.09999999999966284 0
1.518004716354879 -0.7024780245735712 0
0.3046883762966907 0.7022233547384876 0
0.9999999999997291 0.6999999999991671 0
0.9133974596214097 0.7499999999990359 0
1.92285194911332 -0.8495399912093053 0
1.915630369558287 0.8461324865400961 0
0.8267949192431493 0.6999999999990572 0
1.691394477742729 0.002469636475641031 0
1.691325006568142 -0.5025899640792622 0
1.086602540378105 0.6499999999992518 0
0.8263389976036306 0.3007896794434743 0
0.7401163919248117 0.2501316132404475 0
0.6535771739964821 0.300021935539972 0
1.692820323026958 0.1999999999995755 0
1.606171810173149 0.3499198584605654 0
1.259807621134403 -0.5499999999996664 0
1.259807621134442 -0.4499999999997737 0
1.259807621134458 -0.6499999999996734 0
1.34641016151268 -0.6999999999998818 0
1.087812593262869 0.7479041269228197 0
1.173406756237274 0.6996506878198538 0
1.174650421702178 0.797496596046892 0
1.260082123872611 0.7495245473106387 0
1.004088491999457 0.1055021169819076 0
0.09549528281051108 0.8445559454100615 0
0.1505932316990304 0.08294974041484895 0
1.08467720450571 -0.8495762630715269 0
1.777663087608638 0.4518901191344478 0
1.777759377240471 0.04794196960306751 0
0.2205771365962031 0.5499999999994473 0
1.779422863404672 -0.5500000000002204 0
1.519615242270107 0.1999999999996692 0
1.173205080756117 -0.4999999999993125 0
1.769517870171882 -0.044992126035296 0
1.765771813316846 0.549827576858964 0
1.261482303587148 -0.7470993649051426 0
0.6559174708583004 0.2020688458666206 0
0.5685484816346306 0.2494600942568038 0
1.346619856511777 -0.7968055812565372 0
0.2205771365961991 0.4499999999999669 0
0.3071746588042384 0.3999913082747991 0
0.220577136596116 0.3500000000003903 0
0.3071788406125209 0.2999985513795813 0
1.767569110094138 -0.4503083290576936 0
0.2217100636842435 0.2518931489568605 0
1.774381510539516 0.3526925819865142 0
0.8349629124293966 0.8018461935977055 0
0.7400958739746262 0.7580134223853175 0
0.9226202557607242 0.8446791449278954 0
1.848561803492675 0.5076951920928026 0
1.85475734048734 0.0004916405944802986 0
0.7445874930389024 0.1517096451320241 0
0.3032387316637343 0.1854018827927135 0
0.3937822173524052 0.2500000000005647 0
1.258904597990436 0.8485299238626027 0
1.347494221453284 0.8027047163693064 0
1.44235689167747 0.8532332370128441 0
0.6542447199412815 0.09690080162288263 0
1.435724386930823 0.7530696147208903 0
1.521842941582505 0.8043381969694914 0
1.164643180040111 0.9037399917964857 0
0.5500000000013635 0.9133974596217301 0
0.5028328145532799 0.8319367347387376 0
0.407426927815743 0.8321981515326129 0
0.6032686032711148 0.8350732950287659 0
0.08660254037876355 0.350000000001386 0
0.7401762947164883 0.6513355703967912 0
0.6529380183927784 0.6961085943878121 0
0.08660254037828133 0.5500000000013828 0
1.915605813627045 -0.347118757445977 0
0.6496001910244483 0.9168371652116832 0
0.4499999999988965 0.08452994616202715 0
0.4922201224979913 0.1814893723260501 0
1.915166658035879 -0.2491081868291105 0
1.833603493864673 -0.1969701219169026 0
1.830018452367208 -0.2963965412232207 0
1.740192378863905 -0.2500000000009836 0
1.747304874847438 -0.1477117717596892 0
1.750840711145651 -0.3496077226531449 0
1.779422863404595 -0.6500000000001617 0
1.779422863404499 -0.7500000000000022 0
1.692820323026172 -0.7999999999998457 0
1.77122867861434 -0.8451950735835339 0
0.2205771365961473 0.6499999999990596 0
0.2205771365962229 0.7499999999986793 0
0.8267922385517308 0.6002225950655165 0
1.086281651066141 -0.749929377178101 0
0.565084061266194 0.6466277322373776 0
1.913769611277514 0.7493554144227611 0
1.827229096174931 0.7992479834934509 0
1.837120966262836 0.9078840130239674 0
1.743805695186659 0.849346504033712 0
1.742292806357488 0.7522353843967293 0
1.663040759959208 0.8037695420923967 0
1.173205080756217 -0.3999999999994354 0
1.259807621134596 -0.3499999999997723 0
1.433012701891677 0.1499999999997144 0
1.828705223873892 0.7026094335277127 0
1.753088332668123 0.6532483689395258 0
1.603760209232572 -0.4533129032353413 0
1.346410161513107 -0.1000000000001231 0
1.346410161513064 -0.2000000000000717 0
1.001659689902133 0.7918567533216422 0
1.774450563382002 0.1471873584575835 0
1.771215507167099 0.2499799900736632 0
1.550768804999213 -0.9205917513168917 0
1.509302313986718 -0.8222189858230188 0
1.603771787762017 -0.0467071513656889 0
0.5672453846144323 0.3499136716327743 0
1.346410161513305 0.2999999999995914 0
1.173238693336648 0.5999417813027581 0
1.259807621134756 -0.1499999999999736 0
1.259807621134691 -0.249999999999873 0
1.1732050807564 -0.1999999999998054 0
1.598114351114877 -0.2500000000003014 0
1.086602540378208 -0.1499999999997236 0
0.2506386605600452 0.08615017443041961 0
1.347131567498879 -0.8989620500644746 0
1.922715884075307 0.249999999999411 0
1.346410161513296 0.1999999999996844 0
1.430821528008427 -0.7507859749348051 0
1.599117387862008 -0.7619155822396537 0
1.347269084675268 0.7011195270235546 0
1.690551538193187 0.3003399974085815 0
1.432560118581919 -0.6503885713699731 0
1.0875143836571 0.249999999999603 0
0.08154625002703028 0.7459001150420513 0
1.259807621134879 0.6499999999993141 0
0.3513786413053877 0.9146885420842263 0
0.303194340084965 0.813087081750382 0
1.543296847417898 0.9097238005792961 0
1.173210682853231 0.4999902968833144 0
1.34641016151291 -0.3999999999999239 0
1.916065434407282 -0.5498499977859868 0
1.519570478709728 0.3999216400047332 0
1.346733863916126 0.6004229684604798 0
1.433012701891681 0.249999999999638 0
0.8303118403996509 0.2013744581985129 0
0.9192366947362055 0.1583778401136785 0
1.086609076157615 0.549988679697249 0
0.9128655510420822 0.3509212926839845 0
1.519615242270025 0.2999999999996166 0
0.6536307421559172 0.3999892678618531 0
0.3937763628206268 0.4499898596536273 0
1.088347772870192 0.1509170194967458 0
1.259807621134854 -0.04999999999998115 0
1.605831989763661 0.2500433093112784 0
1.9155096426548 -0.7499800426566026 0
1.086602540378151 -0.2499999999994937 0
0.393780265841725 0.3499966198848273 0
1.173205080756367 -0.2999999999995824 0
0.4826602049452423 0.2968099596834933 0
1.086602540377959 -0.4499999999990166 0
1.086602540377988 -0.549999999998961 0
1.173205080756307 -0.5999999999994226 0
1.173430712946441 -0.6995047903468278 0
1.181708404721775 -0.81504357834441 0
1.51780995591208 0.7032527264050025 0
0.9157040239090923 0.2519105450731309 0
1.002481894528643 0.2027845869441014 0
0.8461163969790373 0.9054840045111318 0
0.1532851655102373 0.9208524774294817 0
0.09385434397704213 0.1559066101398146 0
1.149129436889982 -0.9167540441068944 0
1.846713761508717 -0.9110517586829514 0
0.6937380466565127 0.841318799510133 0
0.5593871718298868 0.7472939399937326 0
0.1999999999995618 0.1619468829967638 0
0.2001657094832805 0.8380232778151401 0
0.3984630102156996 0.1585089675110331 0
0.3872786690879228 0.7387355239749619 0
1.08612176693543 0.8380854181436986 0
0.9499999999997918 0.9288675134589 0
1.749999999999999 -0.9304476503635215 0
1.850319519923997 0.4023403198775415 0
1.851379666502141 0.09897615710000501 0
1.682660260987467 -0.09142186561247774 0
1.843358490191954 -0.09778545710704789 0
1.670933649518267 0.7001606816550418 0
1.921804570824181 0.5569137828803435 0
1.68042620071715 0.5998912286379483 0
1.837639188341928 0.6066496570893318 0
1.837306754639667 -0.39469035103046 0
1.682197553724517 -0.4052203953282234 0
1.847022842801522 -0.8009611443555148 0
0.1535898384864107 0.7000000000006934 0
1.846734550123044 -0.7001120460733988 0
0.1535898384864911 0.6000000000011554 0
0.1535898384865198 0.5000000000016506 0
0.1535898384867133 0.4000000000017008 0
0.1535898384870682 0.3000000000012403 0
1.847984878892082 0.1990632465958938 0
1.846410161513703 -0.6000000000015639 0
1.848059131885058 0.3009733607644011 0
1.25452551562575 0.9326831227173914 0
1.846410161513636 -0.5000000000016613 0
1.749999999999519 0.9330127018918056 0
1.674345467653946 -0.3012162924098875 0
1.674023343964447 -0.1979800488846165 0
0.7499999999993415 0.06698729810766454 0
1.930858593453882 0.04986053034733692 0
1.923737230825533 0.4531188868169567 0
1.929064453957209 -0.04957173891934664 0
1.275653913369723 -0.8336561924149788 0
1.450000000000001 0.9347437364679528 0
0.5841861589862049 0.1633043308901578 0
1.418392927820553 -0.8373973207273252 0
1.589781791918331 0.7532065167996201 0
1.590537161209545 0.8425958513978428 0
1.618696779039992 -0.8505894894055308 0
0.073205080756876 0.9267949192431237 0
1.926794919242946 0.9267949192428745 0
1.073205080757055 -0.9267949192428748 0
0.9283805569064648 0.07262848074079098 0
0.07320508075662231 0.07320508075678342 0
1.927304073544549 -0.9273040735444361 0
0.6498855428249839 0.7755616102611523 0
0.1512219849111841 0.7771669754208951 0
0.1497493006089359 0.2247535677727124 0
0.4544500832480527 0.7689268119963633 0
1.700233764112643 -0.8708328211189392 0
0.7708990677924672 0.8448484856174523 0
0.9959229838747612 0.8688011697336152 0
$EndNodes
$Elements
9 814 1 814
1 1 1 10
1 1 9 
2 9 10 
3 10 11 
4 11 12 
5 12 13 
6 13 14 
7 14 15 
8 15 16 
9 16 17 
10 17 2 
1 2 1 10
11 2 18 
12 18 19 
13 19 20 
14 20 21 
15 21 22 
16 22 23 
17 23 24 
18 24 25 
19 25 26 
20 26 3 
1 3 1 10
21 3 27 
22 27 28 
23 28 29 
24 29 30 
25 30 31 
26 31 32 
27 32 33 
28 33 34 
29 34 35 
30 35 4 
1 4 1 10
31 4 36 
32 36 37 
33 37 38 
34 38 39 
35 39 40 
36 40 41 
37 41 42 
38 42 43 
39 43 44 
40 44 5 
1 5 1 10
41 5 45 
42 45 46 
43 46 47 
44 47 48 
45 48 49 
46 49 50 
47 50 51 
48 51 52 
49 52 53 
50 53 6 
1 6 1 10
51 6 54 
52 54 55 
53 55 56 
54 56 57 
55 57 58 
56 58 59 
57 59 60 
58 60 61 
59 61 62 
60 62 7 
1 7 1 10
61 7 63 
62 63 64 
63 64 65 
64 65 66 
65 66 67 
66 67 68 
67 68 69 
68 69 70 
69 70 71 
70 71 8 
1 8 1 10
71 8 72 
72 72 73 
73 73 74 
74 74 75 
75 75 76 
76 76 77 
77 77 78 
78 78 79 
79 79 80 
80 80 1 
2 1 2 734
81 258 337 239 
82 342 349 154 
83 260 363 263 
84 175 307 184 
85 154 389 342 
86 238 302 123 
87 88 246 62 
88 245 316 242 
89 187 356 315 
90 263 363 219 
91 90 323 237 
92 292 307 186 
93 187 315 270 
94 174 366 364 
95 364 366 284 
96 239 355 258 
97 238 353 302 
98 223 337 258 
99 186 306 292 
100 184 307 267 
101 186 307 175 
102 316 390 242 
103 62 246 61 
104 55 276 54 
105 237 385 90 
106 315 356 249 
107 88 357 246 
108 240 241 82 
109 112 279 277 
110 15 243 14 
111 276 397 54 
112 241 242 82 
113 123 355 238 
114 90 324 323 
115 14 243 87 
116 234 346 232 
117 212 349 342 
118 224 389 303 
119 350 370 268 
120 91 363 260 
121 365 367 235 
122 235 367 220 
123 190 370 350 
124 344 345 179 
125 151 343 173 
126 211 353 348 
127 230 353 238 
128 368 381 86 
129 369 383 156 
130 231 379 360 
131 170 384 362 
132 361 377 289 
133 346 407 232 
134 365 387 49 
135 173 343 244 
136 244 308 173 
137 210 354 347 
138 241 244 242 
139 303 392 224 
140 241 308 244 
141 174 343 151 
142 303 389 154 
143 315 354 270 
144 353 404 348 
145 324 345 344 
146 244 245 242 
147 82 380 240 
148 277 382 112 
149 15 385 243 
150 235 387 365 
151 229 381 368 
152 264 383 369 
153 360 379 81 
154 362 384 263 
155 125 377 361 
156 68 314 92 
157 92 314 249 
158 68 92 67 
159 77 251 100 
160 77 100 76 
161 233 253 252 
162 153 315 314 
163 92 247 67 
164 100 254 76 
165 233 252 192 
166 75 254 122 
167 252 271 192 
168 41 86 40 
169 247 256 66 
170 76 254 75 
171 67 247 66 
172 155 251 78 
173 14 87 13 
174 78 251 77 
175 281 336 280 
176 192 271 169 
177 259 261 255 
178 66 256 65 
179 198 294 223 
180 280 336 89 
181 87 257 13 
182 65 256 83 
183 314 315 249 
184 177 298 281 
185 40 319 39 
186 164 328 198 
187 12 257 123 
188 13 257 12 
189 169 271 140 
190 42 259 255 
191 165 299 297 
192 161 273 180 
193 165 301 299 
194 41 255 86 
195 281 318 177 
196 70 153 69 
197 260 261 259 
198 147 273 161 
199 262 264 261 
200 287 298 177 
201 260 262 261 
202 232 233 192 
203 130 287 177 
204 181 269 215 
205 91 260 259 
206 189 232 192 
207 250 256 247 
208 42 255 41 
209 86 319 40 
210 183 265 216 
211 297 331 165 
212 79 155 78 
213 24 272 109 
214 189 192 169 
215 178 231 213 
216 286 331 297 
217 278 283 275 
218 92 248 247 
219 141 144 143 
220 198 328 294 
221 278 284 283 
222 217 332 327 
223 144 146 145 
224 140 141 119 
225 231 309 290 
226 106 282 101 
227 202 218 201 
228 146 273 147 
229 91 259 43 
230 144 271 252 
231 252 253 146 
232 184 265 183 
233 144 145 143 
234 275 283 274 
235 128 287 130 
236 51 274 104 
237 191 276 275 
238 274 283 104 
239 118 140 119 
240 184 266 265 
241 202 280 218 
242 147 161 149 
243 202 318 281 
244 146 147 145 
245 140 271 141 
246 286 287 128 
247 163 169 140 
248 161 162 149 
249 186 310 306 
250 188 189 169 
251 181 182 162 
252 43 259 42 
253 306 310 204 
254 276 277 275 
255 253 273 146 
256 289 290 199 
257 107 286 128 
258 178 213 172 
259 133 285 156 
260 141 271 144 
261 191 275 274 
262 87 258 257 
263 260 263 262 
264 185 289 199 
265 144 252 146 
266 214 289 185 
267 157 185 158 
268 313 321 308 
269 126 282 106 
270 198 223 222 
271 212 272 25 
272 294 337 223 
273 183 194 159 
274 175 183 159 
275 37 190 36 
276 157 158 126 
277 297 299 298 
278 175 184 183 
279 277 279 278 
280 24 109 23 
281 17 90 16 
282 191 274 52 
283 135 285 133 
284 181 215 182 
285 185 199 158 
286 213 235 220 
287 147 149 148 
288 53 191 52 
289 39 319 127 
290 26 212 25 
291 164 198 197 
292 200 309 178 
293 31 291 95 
294 128 130 129 
295 141 143 142 
296 143 328 164 
297 166 178 172 
298 183 216 194 
299 69 314 68 
300 166 200 178 
301 291 292 95 
302 167 202 201 
303 238 239 228 
304 118 119 117 
305 128 129 121 
306 282 305 101 
307 290 309 199 
308 107 128 121 
309 44 91 43 
310 130 131 129 
311 158 217 126 
312 18 84 2 
313 51 104 50 
314 217 282 126 
315 25 272 24 
316 286 297 287 
317 217 322 282 
318 297 298 287 
319 111 114 113 
320 277 278 275 
321 133 156 131 
322 202 281 280 
323 31 95 30 
324 177 318 132 
325 124 291 32 
326 121 293 120 
327 52 274 51 
328 116 118 117 
329 178 309 231 
330 327 332 200 
331 130 177 132 
332 73 210 72 
333 189 234 232 
334 102 286 107 
335 193 214 185 
336 221 224 204 
337 161 180 171 
338 132 133 131 
339 198 222 197 
340 138 313 296 
341 105 295 111 
342 99 295 105 
343 187 269 181 
344 33 124 32 
345 147 148 145 
346 32 291 31 
347 84 301 165 
348 7 88 62 
349 60 82 59 
350 111 113 110 
351 118 163 140 
352 149 150 148 
353 171 181 162 
354 105 111 110 
355 120 157 126 
356 267 268 266 
357 152 159 135 
358 305 322 295 
359 296 317 138 
360 120 293 157 
361 132 318 134 
362 111 176 114 
363 308 321 173 
364 99 305 295 
365 95 303 30 
366 18 301 84 
367 141 142 119 
368 143 164 142 
369 12 123 11 
370 134 135 133 
371 170 293 121 
372 138 321 313 
373 224 306 204 
374 159 285 135 
375 203 204 168 
376 130 132 131 
377 282 322 305 
378 195 296 206 
379 230 238 228 
380 114 136 113 
381 99 103 98 
382 97 98 94 
383 48 81 47 
384 219 236 214 
385 152 175 159 
386 296 313 206 
387 105 108 103 
388 139 152 135 
389 58 316 57 
390 208 241 240 
391 116 117 115 
392 30 303 29 
393 194 285 159 
394 208 308 241 
395 216 229 194 
396 167 318 202 
397 205 288 188 
398 101 305 97 
399 208 313 308 
400 19 301 18 
401 21 89 20 
402 113 138 110 
403 103 311 98 
404 152 186 175 
405 296 325 317 
406 132 134 133 
407 206 208 207 
408 84 85 2 
409 89 336 334 
410 157 193 185 
411 203 221 204 
412 46 125 45 
413 208 240 207 
414 111 295 176 
415 105 110 108 
416 204 310 168 
417 151 173 136 
418 240 246 207 
419 163 188 169 
420 138 317 110 
421 99 105 103 
422 29 303 154 
423 206 313 208 
424 75 122 74 
425 166 320 200 
426 184 267 266 
427 96 101 97 
428 47 304 46 
429 134 139 135 
430 182 329 162 
431 110 317 108 
432 120 126 106 
433 195 206 205 
434 97 99 98 
435 206 207 205 
436 108 115 103 
437 29 154 28 
438 114 137 136 
439 108 317 116 
440 311 330 98 
441 57 112 56 
442 81 304 47 
443 163 325 195 
444 84 165 93 
445 107 121 120 
446 117 179 115 
447 317 325 116 
448 152 310 186 
449 248 250 247 
450 195 205 188 
451 97 305 99 
452 158 332 217 
453 131 300 129 
454 217 327 322 
455 164 197 196 
456 176 320 114 
457 137 166 160 
458 57 316 112 
459 239 335 228 
460 280 338 218 
461 108 116 115 
462 84 93 85 
463 139 310 152 
464 173 321 136 
465 142 326 119 
466 96 102 101 
467 161 171 162 
468 149 329 150 
469 195 325 296 
470 113 321 138 
471 215 225 182 
472 165 331 93 
473 136 321 113 
474 46 304 125 
475 129 170 121 
476 156 300 131 
477 157 293 193 
478 118 325 163 
479 137 151 136 
480 114 320 137 
481 167 168 139 
482 119 326 117 
483 117 326 179 
484 134 318 167 
485 295 322 176 
486 102 106 101 
487 160 174 151 
488 201 203 168 
489 65 83 64 
490 115 311 103 
491 168 310 139 
492 200 332 309 
493 102 331 286 
494 187 270 269 
495 93 94 85 
496 102 107 106 
497 134 167 139 
498 92 249 248 
499 166 172 160 
500 96 97 94 
501 116 325 118 
502 123 302 11 
503 298 336 281 
504 129 300 170 
505 11 302 10 
506 153 314 69 
507 137 160 151 
508 107 120 106 
509 188 288 189 
510 196 326 142 
511 150 294 148 
512 137 320 166 
513 163 195 188 
514 213 220 172 
515 167 201 168 
516 164 196 142 
517 93 96 94 
518 320 327 200 
519 199 332 158 
520 93 331 96 
521 145 328 143 
522 98 330 94 
523 162 329 149 
524 222 243 237 
525 226 329 182 
526 322 327 176 
527 10 211 9 
528 171 187 181 
529 309 332 199 
530 179 311 115 
531 301 334 299 
532 222 237 197 
533 225 226 182 
534 94 330 85 
535 239 337 335 
536 176 327 320 
537 227 228 226 
538 85 209 2 
539 89 334 20 
540 148 328 145 
541 193 219 214 
542 19 334 301 
543 340 341 203 
544 74 312 73 
545 73 312 210 
546 197 323 196 
547 189 288 234 
548 338 339 218 
549 334 336 299 
550 227 230 228 
551 122 312 74 
552 294 328 148 
553 96 331 102 
554 37 333 190 
555 10 302 211 
556 20 334 19 
557 329 335 150 
558 237 323 197 
559 85 330 209 
560 38 333 37 
561 228 335 226 
562 39 127 38 
563 89 338 280 
564 225 227 226 
565 226 335 329 
566 335 337 150 
567 299 336 298 
568 21 338 89 
569 109 341 340 
570 150 337 294 
571 109 339 23 
572 127 333 38 
573 109 340 339 
574 22 338 21 
575 22 339 338 
576 201 340 203 
577 23 339 22 
578 272 341 109 
579 339 340 218 
580 218 340 201 
581 203 341 221 
582 212 342 272 
583 341 342 221 
584 272 342 341 
585 248 405 352 
586 244 343 245 
587 395 406 267 
588 210 403 354 
589 248 352 250 
590 219 362 263 
591 220 367 284 
592 284 366 220 
593 229 368 264 
594 264 369 229 
595 112 394 279 
596 209 345 324 
597 324 344 323 
598 307 395 267 
599 326 344 179 
600 179 345 311 
601 323 344 196 
602 330 345 209 
603 64 346 63 
604 71 347 70 
605 80 348 79 
606 28 349 27 
607 346 358 63 
608 250 351 256 
609 253 352 273 
610 245 394 316 
611 174 393 343 
612 153 354 315 
613 242 390 82 
614 292 395 307 
615 258 355 257 
616 238 355 239 
617 352 405 180 
618 180 356 171 
619 311 345 330 
620 196 344 326 
621 234 358 346 
622 83 346 64 
623 70 347 153 
624 79 348 155 
625 154 349 28 
626 205 357 288 
627 246 357 207 
628 7 358 88 
629 33 359 124 
630 35 350 34 
631 255 368 86 
632 50 365 49 
633 231 360 213 
634 214 361 289 
635 264 368 261 
636 170 362 293 
637 284 367 283 
638 278 364 284 
639 285 369 156 
640 160 366 174 
641 229 369 194 
642 220 366 172 
643 193 362 219 
644 357 408 288 
645 60 380 82 
646 90 385 16 
647 112 382 56 
648 243 385 237 
649 44 388 91 
650 48 387 81 
651 125 386 45 
652 342 389 221 
653 82 390 59 
654 58 390 316 
655 95 392 303 
656 256 351 83 
657 268 359 350 
658 124 406 395 
659 291 395 292 
660 2 399 17 
661 72 396 8 
662 209 399 2 
663 3 398 26 
664 6 397 53 
665 27 398 3 
666 54 397 6 
667 191 397 276 
668 9 400 1 
669 1 400 80 
670 8 396 71 
671 243 391 87 
672 273 352 180 
673 36 401 4 
674 4 401 35 
675 364 393 174 
676 350 359 34 
677 302 353 211 
678 257 355 123 
679 222 391 243 
680 88 408 357 
681 171 356 187 
682 232 407 233 
683 253 402 352 
684 207 357 205 
685 83 407 346 
686 246 380 61 
687 55 382 276 
688 258 391 223 
689 306 392 292 
690 347 354 153 
691 63 358 7 
692 312 403 210 
693 91 388 363 
694 81 387 360 
695 361 386 125 
696 34 359 33 
697 213 360 235 
698 236 361 214 
699 261 368 255 
700 104 367 365 
701 293 362 193 
702 279 364 278 
703 219 363 236 
704 104 365 50 
705 283 367 104 
706 172 366 160 
707 194 369 285 
708 316 394 112 
709 223 391 222 
710 224 392 306 
711 236 388 386 
712 373 374 215 
713 375 376 227 
714 269 373 215 
715 374 375 225 
716 270 371 269 
717 215 374 225 
718 251 375 100 
719 371 373 269 
720 225 375 227 
721 251 376 375 
722 265 378 216 
723 266 372 265 
724 254 374 373 
725 378 381 216 
726 254 373 122 
727 268 370 266 
728 216 381 229 
729 100 375 374 
730 333 370 190 
731 100 374 254 
732 155 376 251 
733 227 376 230 
734 122 371 312 
735 290 379 231 
736 122 373 371 
737 333 372 370 
738 127 372 333 
739 289 377 290 
740 240 380 246 
741 370 372 266 
742 319 381 378 
743 304 377 125 
744 81 379 304 
745 262 383 264 
746 304 379 377 
747 61 380 60 
748 319 378 127 
749 377 379 290 
750 56 382 55 
751 372 378 265 
752 263 384 262 
753 127 378 372 
754 276 382 277 
755 262 384 383 
756 86 381 319 
757 16 385 15 
758 156 383 300 
759 300 384 170 
760 383 384 300 
761 233 407 351 
762 5 388 44 
763 386 388 5 
764 45 386 5 
765 49 387 48 
766 324 399 209 
767 90 399 324 
768 221 389 224 
769 233 402 253 
770 59 390 58 
771 352 402 250 
772 87 391 258 
773 292 392 95 
774 348 404 155 
775 343 393 245 
776 71 396 347 
777 80 400 348 
778 349 398 27 
779 190 401 36 
780 124 395 291 
781 26 398 212 
782 53 397 191 
783 17 399 90 
784 210 396 72 
785 211 400 9 
786 359 406 124 
787 358 408 88 
788 288 408 234 
789 249 405 248 
790 180 405 356 
791 250 402 351 
792 351 402 233 
793 267 406 268 
794 347 396 210 
795 348 400 211 
796 212 398 349 
797 350 401 190 
798 35 401 350 
799 279 393 364 
800 360 387 235 
801 236 386 361 
802 363 388 236 
803 393 394 245 
804 279 394 393 
805 351 407 83 
806 356 405 249 
807 230 404 353 
808 354 403 270 
809 234 408 358 
810 371 403 312 
811 270 403 371 
812 376 404 230 
813 155 404 376 
814 268 406 359 
$EndElements
