$MeshFormat
4.1 0 8
$EndMeshFormat
$PhysicalNames
1
2 1 "domain"
$EndPhysicalNames
$Entities
0 0 1 0
1 0.10000000149011612 0.10000000149011612 0 0.8999999761581421 0.8999999761581421 0 1 1 0 0
$EndEntities
$Nodes
1 49 1 49
2 1 0 49
1
2
3
4
5
6
7
8
9
10
11
12
13
14
15
16
17
18
19
20
21
22
23
24
25
26
27
28
29
30
31
32
33
34
35
36
37
38
39
40
41
42
43
44
45
46
47
48
49
0.5 0.5 0
0.6000000238418579 0.5 0
0.5866025686264038 0.550000011920929 0
0.550000011920929 0.5866025686264038 0
0.5 0.6000000238418579 0
0.44999998807907104 0.5866025686264038 0
0.4133974611759186 0.550000011920929 0
0.4000000059604645 0.5 0
0.4133974611759186 0.44999998807907104 0
0.44999998807907104 0.4133974611759186 0
0.5 0.4000000059604645 0
0.550000011920929 0.4133974611759186 0
0.5866025686264038 0.44999998807907104 0
0.699999988079071 0.5 0
0.6732050776481628 0.6000000238418579 0
0.6000000238418579 0.6732050776481628 0
0.5 0.699999988079071 0
0.4000000059604645 0.6732050776481628 0
0.32679492235183716 0.6000000238418579 0
0.30000001192092896 0.5 0
0.32679492235183716 0.4000000059604645 0
0.4000000059604645 0.32679492235183716 0
0.5 0.30000001192092896 0
0.6000000238418579 0.32679492235183716 0
0.6732050776481628 0.4000000059604645 0
0.800000011920929 0.5 0
0.7598076462745667 0.6499999761581421 0
0.6499999761581421 0.7598076462745667 0
0.5 0.800000011920929 0
0.3499999940395355 0.7598076462745667 0
0.24019238352775574 0.6499999761581421 0
0.20000000298023224 0.5 0
0.24019238352775574 0.3499999940395355 0
0.3499999940395355 0.24019238352775574 0
0.5 0.20000000298023224 0
0.6499999761581421 0.24019238352775574 0
0.7598076462745667 0.3499999940395355 0
0.8999999761581421 0.5 0
0.8464101552963257 0.699999988079071 0
0.699999988079071 0.8464101552963257 0
0.5 0.8999999761581421 0
0.30000001192092896 0.8464101552963257 0
0.15358984470367432 0.699999988079071 0
0.10000000149011612 0.5 0
0.15358984470367432 0.30000001192092896 0
0.30000001192092896 0.15358984470367432 0
0.5 0.10000000149011612 0
0.699999988079071 0.15358984470367432 0
0.8464101552963257 0.30000001192092896 0
$EndNodes
$Elements
1 84 1 84
2 1 2 84
1 1 2 3
2 1 3 4
3 1 4 5
4 1 5 6
5 1 6 7
6 1 7 8
7 1 8 9
8 1 9 10
9 1 10 11
10 1 11 12
11 1 12 13
12 1 13 2
13 2 14 3
14 14 15 3
15 3 15 4
16 15 16 4
17 4 16 5
18 16 17 5
19 5 17 6
20 17 18 6
21 6 18 7
22 18 19 7
23 7 19 8
24 19 20 8
25 8 20 9
26 20 21 9
27 9 21 10
28 21 22 10
29 10 22 11
30 22 23 11
31 11 23 12
32 23 24 12
33 12 24 13
34 24 25 13
35 13 25 2
36 25 14 2
37 14 26 15
38 26 27 15
39 15 27 16
40 27 28 16
41 16 28 17
42 28 29 17
43 17 29 18
44 29 30 18
45 18 30 19
46 30 31 19
47 19 31 20
48 31 32 20
49 20 32 21
50 32 33 21
51 21 33 22
52 33 34 22
53 22 34 23
54 34 35 23
55 23 35 24
56 35 36 24
57 24 36 25
58 36 37 25
59 25 37 14
60 37 26 14
61 26 38 27
62 38 39 27
63 27 39 28
64 39 40 28
65 28 40 29
66 40 41 29
67 29 41 30
68 41 42 30
69 30 42 31
70 42 43 31
71 31 43 32
72 43 44 32
73 32 44 33
74 44 45 33
75 33 45 34
76 45 46 34
77 34 46 35
78 46 47 35
79 35 47 36
80 47 48 36
81 36 48 37
82 48 49 37
83 37 49 26
84 49 38 26
$EndElements
