$MeshFormat
4.1 0 8
$EndMeshFormat
$PhysicalNames
1
2 1 "domain"
$EndPhysicalNames
$Entities
0 0 1 0
1 0.0 0.0 0 1.0 1.0 0 1 1 0 0
$EndEntities
$Nodes
1 81 1 81
2 1 0 81
1
2
3
4
5
6
7
8
9
10
11
12
13
14
15
16
17
18
19
20
21
22
23
24
25
26
27
28
29
30
31
32
33
34
35
36
37
38
39
40
41
42
43
44
45
46
47
48
49
50
51
52
53
54
55
56
57
58
59
60
61
62
63
64
65
66
67
68
69
70
71
72
73
74
75
76
77
78
79
80
81
0.0 0.0 0
0.125 0.0 0
0.25 0.0 0
0.375 0.0 0
0.5 0.0 0
0.625 0.0 0
0.75 0.0 0
0.875 0.0 0
1.0 0.0 0
0.0 0.125 0
0.125 0.125 0
0.25 0.125 0
0.375 0.125 0
0.5 0.125 0
0.625 0.125 0
0.75 0.125 0
0.875 0.125 0
1.0 0.125 0
0.0 0.25 0
0.125 0.25 0
0.25 0.25 0
0.375 0.25 0
0.5 0.25 0
0.625 0.25 0
0.75 0.25 0
0.875 0.25 0
1.0 0.25 0
0.0 0.375 0
0.125 0.375 0
0.25 0.375 0
0.375 0.375 0
0.5 0.375 0
0.625 0.375 0
0.75 0.375 0
0.875 0.375 0
1.0 0.375 0
0.0 0.5 0
0.125 0.5 0
0.25 0.5 0
0.375 0.5 0
0.5 0.5 0
0.625 0.5 0
0.75 0.5 0
0.875 0.5 0
1.0 0.5 0
0.0 0.625 0
0.125 0.625 0
0.25 0.625 0
0.375 0.625 0
0.5 0.625 0
0.625 0.625 0
0.75 0.625 0
0.875 0.625 0
1.0 0.625 0
0.0 0.75 0
0.125 0.75 0
0.25 0.75 0
0.375 0.75 0
0.5 0.75 0
0.625 0.75 0
0.75 0.75 0
0.875 0.75 0
1.0 0.75 0
0.0 0.875 0
0.125 0.875 0
0.25 0.875 0
0.375 0.875 0
0.5 0.875 0
0.625 0.875 0
0.75 0.875 0
0.875 0.875 0
1.0 0.875 0
0.0 1.0 0
0.125 1.0 0
0.25 1.0 0
0.375 1.0 0
0.5 1.0 0
0.625 1.0 0
0.75 1.0 0
0.875 1.0 0
1.0 1.0 0
$EndNodes
$Elements
1 128 1 128
2 1 2 128
1 1 2 10
2 2 11 10
3 2 3 11
4 3 12 11
5 3 4 12
6 4 13 12
7 4 5 13
8 5 14 13
9 5 6 14
10 6 15 14
11 6 7 15
12 7 16 15
13 7 8 16
14 8 17 16
15 8 9 17
16 9 18 17
17 10 11 19
18 11 20 19
19 11 12 20
20 12 21 20
21 12 13 21
22 13 22 21
23 13 14 22
24 14 23 22
25 14 15 23
26 15 24 23
27 15 16 24
28 16 25 24
29 16 17 25
30 17 26 25
31 17 18 26
32 18 27 26
33 19 20 28
34 20 29 28
35 20 21 29
36 21 30 29
37 21 22 30
38 22 31 30
39 22 23 31
40 23 32 31
41 23 24 32
42 24 33 32
43 24 25 33
44 25 34 33
45 25 26 34
46 26 35 34
47 26 27 35
48 27 36 35
49 28 29 37
50 29 38 37
51 29 30 38
52 30 39 38
53 30 31 39
54 31 40 39
55 31 32 40
56 32 41 40
57 32 33 41
58 33 42 41
59 33 34 42
60 34 43 42
61 34 35 43
62 35 44 43
63 35 36 44
64 36 45 44
65 37 38 46
66 38 47 46
67 38 39 47
68 39 48 47
69 39 40 48
70 40 49 48
71 40 41 49
72 41 50 49
73 41 42 50
74 42 51 50
75 42 43 51
76 43 52 51
77 43 44 52
78 44 53 52
79 44 45 53
80 45 54 53
81 46 47 55
82 47 56 55
83 47 48 56
84 48 57 56
85 48 49 57
86 49 58 57
87 49 50 58
88 50 59 58
89 50 51 59
90 51 60 59
91 51 52 60
92 52 61 60
93 52 53 61
94 53 62 61
95 53 54 62
96 54 63 62
97 55 56 64
98 56 65 64
99 56 57 65
100 57 66 65
101 57 58 66
102 58 67 66
103 58 59 67
104 59 68 67
105 59 60 68
106 60 69 68
107 60 61 69
108 61 70 69
109 61 62 70
110 62 71 70
111 62 63 71
112 63 72 71
113 64 65 73
114 65 74 73
115 65 66 74
116 66 75 74
117 66 67 75
118 67 76 75
119 67 68 76
120 68 77 76
121 68 69 77
122 69 78 77
123 69 70 78
124 70 79 78
125 70 71 79
126 71 80 79
127 71 72 80
128 72 81 80
$EndElements
