NDIME= 2
NPOIN= 121
1.0 0.0 0.0
0.9876883405951378 0.15643446504023087 0.0
0.9510565162951535 0.3090169943749474 0.0
0.8910065241883679 0.45399049973954675 0.0
0.8090169943749475 0.5877852522924731 0.0
0.7071067811865476 0.7071067811865475 0.0
0.5877852522924731 0.8090169943749475 0.0
0.45399049973954686 0.8910065241883678 0.0
0.30901699437494745 0.9510565162951535 0.0
0.15643446504023092 0.9876883405951378 0.0
6.123233995736766e-17 1.0 0.0
1.15 0.0 0.0
1.1358415916844085 0.17989963479626547 0.0
1.0937149937394264 0.3553695435311895 0.0
1.024657502816623 0.5220890747004787 0.0
0.9303695435311895 0.675953040136344 0.0
0.8131727983645296 0.8131727983645295 0.0
0.675953040136344 0.9303695435311895 0.0
0.5220890747004788 1.024657502816623 0.0
0.35536954353118955 1.0937149937394264 0.0
0.17989963479626556 1.1358415916844085 0.0
7.04171909509728e-17 1.15 0.0
1.3 0.0 0.0
1.2839948427736791 0.20336480455230013 0.0
1.2363734711836996 0.40172209268743164 0.0
1.1583084814448783 0.5901876496614108 0.0
1.0517220926874318 0.7641208279802151 0.0
0.9192388155425119 0.9192388155425117 0.0
0.7641208279802151 1.0517220926874318 0.0
0.5901876496614109 1.158308481444878 0.0
0.4017220926874317 1.2363734711836996 0.0
0.20336480455230022 1.2839948427736791 0.0
7.960204194457797e-17 1.3 0.0
1.45 0.0 0.0
1.4321480938629498 0.22682997430833476 0.0
1.3790319486279725 0.44807464184367374 0.0
1.2919594600731334 0.6582862246223428 0.0
1.1730746418436737 0.852288615824086 0.0
1.0253048327204939 1.0253048327204939 0.0
0.852288615824086 1.1730746418436737 0.0
0.6582862246223429 1.2919594600731332 0.0
0.4480746418436738 1.3790319486279725 0.0
0.22682997430833482 1.4321480938629498 0.0
8.878689293818311e-17 1.45 0.0
1.6 0.0 0.0
1.5803013449522205 0.2502951440643694 0.0
1.5216904260722457 0.49442719099991583 0.0
1.4256104387013888 0.7263847995832748 0.0
1.294427190999916 0.940456403667957 0.0
1.1313708498984762 1.131370849898476 0.0
0.940456403667957 1.294427190999916 0.0
0.7263847995832751 1.4256104387013886 0.0
0.49442719099991594 1.5216904260722457 0.0
0.2502951440643695 1.5803013449522205 0.0
9.797174393178826e-17 1.6 0.0
1.75 0.0 0.0
1.728454596041491 0.273760313820404 0.0
1.6643489035165187 0.5407797401561579 0.0
1.5592614173296437 0.7944833745442068 0.0
1.415779740156158 1.028624191511828 0.0
1.2374368670764582 1.237436867076458 0.0
1.028624191511828 1.415779740156158 0.0
0.794483374544207 1.5592614173296435 0.0
0.540779740156158 1.6643489035165187 0.0
0.2737603138204041 1.728454596041491 0.0
1.071565949253934e-16 1.75 0.0
1.9 0.0 0.0
1.8766078471307617 0.29722548357643863 0.0
1.8070073809607916 0.5871322893124 0.0
1.6929123959578989 0.8625819495051388 0.0
1.5371322893124 1.1167919793556988 0.0
1.3435028842544403 1.34350288425444 0.0
1.1167919793556988 1.5371322893124 0.0
0.862581949505139 1.6929123959578987 0.0
0.5871322893124001 1.8070073809607916 0.0
0.29722548357643874 1.8766078471307617 0.0
1.1634144591899854e-16 1.9 0.0
2.05 0.0 0.0
2.0247610982200324 0.32069065333247326 0.0
1.9496658584050646 0.6334848384686421 0.0
1.826563374586154 0.9306805244660707 0.0
1.6584848384686421 1.2049597671995698 0.0
1.4495689014324225 1.4495689014324222 0.0
1.2049597671995698 1.6584848384686421 0.0
0.930680524466071 1.8265633745861538 0.0
0.6334848384686422 1.9496658584050646 0.0
0.3206906533324734 2.0247610982200324 0.0
1.2552629691260368e-16 2.05 0.0
2.2 0.0 0.0
2.1729143493093033 0.34415582308850795 0.0
2.0923243358493377 0.6798373876248843 0.0
1.9602143532144096 0.9987790994270029 0.0
1.7798373876248845 1.293127555043441 0.0
1.5556349186104048 1.5556349186104046 0.0
1.293127555043441 1.7798373876248845 0.0
0.9987790994270032 1.9602143532144094 0.0
0.6798373876248844 2.0923243358493377 0.0
0.34415582308850806 2.1729143493093033 0.0
1.3471114790620887e-16 2.2 0.0
2.35 0.0 0.0
2.3210676003985737 0.3676209928445426 0.0
2.2349828132936107 0.7261899367811264 0.0
2.0938653318426645 1.066877674387935 0.0
1.9011899367811267 1.3812953428873118 0.0
1.661700935788387 1.6617009357883865 0.0
1.3812953428873118 1.9011899367811267 0.0
1.0668776743879351 2.0938653318426645 0.0
0.7261899367811265 2.2349828132936107 0.0
0.3676209928445427 2.3210676003985737 0.0
1.4389599889981402e-16 2.35 0.0
2.5 0.0 0.0
2.4692208514878446 0.39108616260057716 0.0
2.3776412907378837 0.7725424859373685 0.0
2.2275163104709197 1.1349762493488669 0.0
2.0225424859373686 1.469463130731183 0.0
1.7677669529663689 1.7677669529663687 0.0
1.469463130731183 2.0225424859373686 0.0
1.134976249348867 2.2275163104709197 0.0
0.7725424859373686 2.3776412907378837 0.0
0.3910861626005773 2.4692208514878446 0.0
1.5308084989341916e-16 2.5 0.0
NELEM= 200
5 0 1 12
5 0 12 11
5 1 2 13
5 1 13 12
5 2 3 14
5 2 14 13
5 3 4 15
5 3 15 14
5 4 5 16
5 4 16 15
5 5 6 17
5 5 17 16
5 6 7 18
5 6 18 17
5 7 8 19
5 7 19 18
5 8 9 20
5 8 20 19
5 9 10 21
5 9 21 20
5 11 12 23
5 11 23 22
5 12 13 24
5 12 24 23
5 13 14 25
5 13 25 24
5 14 15 26
5 14 26 25
5 15 16 27
5 15 27 26
5 16 17 28
5 16 28 27
5 17 18 29
5 17 29 28
5 18 19 30
5 18 30 29
5 19 20 31
5 19 31 30
5 20 21 32
5 20 32 31
5 22 23 34
5 22 34 33
5 23 24 35
5 23 35 34
5 24 25 36
5 24 36 35
5 25 26 37
5 25 37 36
5 26 27 38
5 26 38 37
5 27 28 39
5 27 39 38
5 28 29 40
5 28 40 39
5 29 30 41
5 29 41 40
5 30 31 42
5 30 42 41
5 31 32 43
5 31 43 42
5 33 34 45
5 33 45 44
5 34 35 46
5 34 46 45
5 35 36 47
5 35 47 46
5 36 37 48
5 36 48 47
5 37 38 49
5 37 49 48
5 38 39 50
5 38 50 49
5 39 40 51
5 39 51 50
5 40 41 52
5 40 52 51
5 41 42 53
5 41 53 52
5 42 43 54
5 42 54 53
5 44 45 56
5 44 56 55
5 45 46 57
5 45 57 56
5 46 47 58
5 46 58 57
5 47 48 59
5 47 59 58
5 48 49 60
5 48 60 59
5 49 50 61
5 49 61 60
5 50 51 62
5 50 62 61
5 51 52 63
5 51 63 62
5 52 53 64
5 52 64 63
5 53 54 65
5 53 65 64
5 55 56 67
5 55 67 66
5 56 57 68
5 56 68 67
5 57 58 69
5 57 69 68
5 58 59 70
5 58 70 69
5 59 60 71
5 59 71 70
5 60 61 72
5 60 72 71
5 61 62 73
5 61 73 72
5 62 63 74
5 62 74 73
5 63 64 75
5 63 75 74
5 64 65 76
5 64 76 75
5 66 67 78
5 66 78 77
5 67 68 79
5 67 79 78
5 68 69 80
5 68 80 79
5 69 70 81
5 69 81 80
5 70 71 82
5 70 82 81
5 71 72 83
5 71 83 82
5 72 73 84
5 72 84 83
5 73 74 85
5 73 85 84
5 74 75 86
5 74 86 85
5 75 76 87
5 75 87 86
5 77 78 89
5 77 89 88
5 78 79 90
5 78 90 89
5 79 80 91
5 79 91 90
5 80 81 92
5 80 92 91
5 81 82 93
5 81 93 92
5 82 83 94
5 82 94 93
5 83 84 95
5 83 95 94
5 84 85 96
5 84 96 95
5 85 86 97
5 85 97 96
5 86 87 98
5 86 98 97
5 88 89 100
5 88 100 99
5 89 90 101
5 89 101 100
5 90 91 102
5 90 102 101
5 91 92 103
5 91 103 102
5 92 93 104
5 92 104 103
5 93 94 105
5 93 105 104
5 94 95 106
5 94 106 105
5 95 96 107
5 95 107 106
5 96 97 108
5 96 108 107
5 97 98 109
5 97 109 108
5 99 100 111
5 99 111 110
5 100 101 112
5 100 112 111
5 101 102 113
5 101 113 112
5 102 103 114
5 102 114 113
5 103 104 115
5 103 115 114
5 104 105 116
5 104 116 115
5 105 106 117
5 105 117 116
5 106 107 118
5 106 118 117
5 107 108 119
5 107 119 118
5 108 109 120
5 108 120 119
