NDIME= 2
NPOIN= 121
-1.0 -1.0 0.0
-0.8 -1.0 0.0
-0.6 -1.0 0.0
-0.4 -1.0 0.0
-0.19999999999999996 -1.0 0.0
0.0 -1.0 0.0
0.19999999999999996 -1.0 0.0
0.3999999999999999 -1.0 0.0
0.6000000000000001 -1.0 0.0
0.8 -1.0 0.0
1.0 -1.0 0.0
-1.0 -0.8 0.0
-0.8 -0.8 0.0
-0.6 -0.8 0.0
-0.4 -0.8 0.0
-0.19999999999999996 -0.8 0.0
0.0 -0.8 0.0
0.19999999999999996 -0.8 0.0
0.3999999999999999 -0.8 0.0
0.6000000000000001 -0.8 0.0
0.8 -0.8 0.0
1.0 -0.8 0.0
-1.0 -0.6 0.0
-0.8 -0.6 0.0
-0.6 -0.6 0.0
-0.4 -0.6 0.0
-0.19999999999999996 -0.6 0.0
0.0 -0.6 0.0
0.19999999999999996 -0.6 0.0
0.3999999999999999 -0.6 0.0
0.6000000000000001 -0.6 0.0
0.8 -0.6 0.0
1.0 -0.6 0.0
-1.0 -0.4 0.0
-0.8 -0.4 0.0
-0.6 -0.4 0.0
-0.4 -0.4 0.0
-0.19999999999999996 -0.4 0.0
0.0 -0.4 0.0
0.19999999999999996 -0.4 0.0
0.3999999999999999 -0.4 0.0
0.6000000000000001 -0.4 0.0
0.8 -0.4 0.0
1.0 -0.4 0.0
-1.0 -0.19999999999999996 0.0
-0.8 -0.19999999999999996 0.0
-0.6 -0.19999999999999996 0.0
-0.4 -0.19999999999999996 0.0
-0.19999999999999996 -0.19999999999999996 0.0
0.0 -0.19999999999999996 0.0
0.19999999999999996 -0.19999999999999996 0.0
0.3999999999999999 -0.19999999999999996 0.0
0.6000000000000001 -0.19999999999999996 0.0
0.8 -0.19999999999999996 0.0
1.0 -0.19999999999999996 0.0
-1.0 0.0 0.0
-0.8 0.0 0.0
-0.6 0.0 0.0
-0.4 0.0 0.0
-0.19999999999999996 0.0 0.0
0.0 0.0 0.0
0.19999999999999996 0.0 0.0
0.3999999999999999 0.0 0.0
0.6000000000000001 0.0 0.0
0.8 0.0 0.0
1.0 0.0 0.0
-1.0 0.19999999999999996 0.0
-0.8 0.19999999999999996 0.0
-0.6 0.19999999999999996 0.0
-0.4 0.19999999999999996 0.0
-0.19999999999999996 0.19999999999999996 0.0
0.0 0.19999999999999996 0.0
0.19999999999999996 0.19999999999999996 0.0
0.3999999999999999 0.19999999999999996 0.0
0.6000000000000001 0.19999999999999996 0.0
0.8 0.19999999999999996 0.0
1.0 0.19999999999999996 0.0
-1.0 0.3999999999999999 0.0
-0.8 0.3999999999999999 0.0
-0.6 0.3999999999999999 0.0
-0.4 0.3999999999999999 0.0
-0.19999999999999996 0.3999999999999999 0.0
0.0 0.3999999999999999 0.0
0.19999999999999996 0.3999999999999999 0.0
0.3999999999999999 0.3999999999999999 0.0
0.6000000000000001 0.3999999999999999 0.0
0.8 0.3999999999999999 0.0
1.0 0.3999999999999999 0.0
-1.0 0.6000000000000001 0.0
-0.8 0.6000000000000001 0.0
-0.6 0.6000000000000001 0.0
-0.4 0.6000000000000001 0.0
-0.19999999999999996 0.6000000000000001 0.0
0.0 0.6000000000000001 0.0
0.19999999999999996 0.6000000000000001 0.0
0.3999999999999999 0.6000000000000001 0.0
0.6000000000000001 0.6000000000000001 0.0
0.8 0.6000000000000001 0.0
1.0 0.6000000000000001 0.0
-1.0 0.8 0.0
-0.8 0.8 0.0
-0.6 0.8 0.0
-0.4 0.8 0.0
-0.19999999999999996 0.8 0.0
0.0 0.8 0.0
0.19999999999999996 0.8 0.0
0.3999999999999999 0.8 0.0
0.6000000000000001 0.8 0.0
0.8 0.8 0.0
1.0 0.8 0.0
-1.0 1.0 0.0
-0.8 1.0 0.0
-0.6 1.0 0.0
-0.4 1.0 0.0
-0.19999999999999996 1.0 0.0
0.0 1.0 0.0
0.19999999999999996 1.0 0.0
0.3999999999999999 1.0 0.0
0.6000000000000001 1.0 0.0
0.8 1.0 0.0
1.0 1.0 0.0
NELEM= 200
5 0 1 12
5 0 12 11
5 1 2 13
5 1 13 12
5 2 3 14
5 2 14 13
5 3 4 15
5 3 15 14
5 4 5 16
5 4 16 15
5 5 6 17
5 5 17 16
5 6 7 18
5 6 18 17
5 7 8 19
5 7 19 18
5 8 9 20
5 8 20 19
5 9 10 21
5 9 21 20
5 11 12 23
5 11 23 22
5 12 13 24
5 12 24 23
5 13 14 25
5 13 25 24
5 14 15 26
5 14 26 25
5 15 16 27
5 15 27 26
5 16 17 28
5 16 28 27
5 17 18 29
5 17 29 28
5 18 19 30
5 18 30 29
5 19 20 31
5 19 31 30
5 20 21 32
5 20 32 31
5 22 23 34
5 22 34 33
5 23 24 35
5 23 35 34
5 24 25 36
5 24 36 35
5 25 26 37
5 25 37 36
5 26 27 38
5 26 38 37
5 27 28 39
5 27 39 38
5 28 29 40
5 28 40 39
5 29 30 41
5 29 41 40
5 30 31 42
5 30 42 41
5 31 32 43
5 31 43 42
5 33 34 45
5 33 45 44
5 34 35 46
5 34 46 45
5 35 36 47
5 35 47 46
5 36 37 48
5 36 48 47
5 37 38 49
5 37 49 48
5 38 39 50
5 38 50 49
5 39 40 51
5 39 51 50
5 40 41 52
5 40 52 51
5 41 42 53
5 41 53 52
5 42 43 54
5 42 54 53
5 44 45 56
5 44 56 55
5 45 46 57
5 45 57 56
5 46 47 58
5 46 58 57
5 47 48 59
5 47 59 58
5 48 49 60
5 48 60 59
5 49 50 61
5 49 61 60
5 50 51 62
5 50 62 61
5 51 52 63
5 51 63 62
5 52 53 64
5 52 64 63
5 53 54 65
5 53 65 64
5 55 56 67
5 55 67 66
5 56 57 68
5 56 68 67
5 57 58 69
5 57 69 68
5 58 59 70
5 58 70 69
5 59 60 71
5 59 71 70
5 60 61 72
5 60 72 71
5 61 62 73
5 61 73 72
5 62 63 74
5 62 74 73
5 63 64 75
5 63 75 74
5 64 65 76
5 64 76 75
5 66 67 78
5 66 78 77
5 67 68 79
5 67 79 78
5 68 69 80
5 68 80 79
5 69 70 81
5 69 81 80
5 70 71 82
5 70 82 81
5 71 72 83
5 71 83 82
5 72 73 84
5 72 84 83
5 73 74 85
5 73 85 84
5 74 75 86
5 74 86 85
5 75 76 87
5 75 87 86
5 77 78 89
5 77 89 88
5 78 79 90
5 78 90 89
5 79 80 91
5 79 91 90
5 80 81 92
5 80 92 91
5 81 82 93
5 81 93 92
5 82 83 94
5 82 94 93
5 83 84 95
5 83 95 94
5 84 85 96
5 84 96 95
5 85 86 97
5 85 97 96
5 86 87 98
5 86 98 97
5 88 89 100
5 88 100 99
5 89 90 101
5 89 101 100
5 90 91 102
5 90 102 101
5 91 92 103
5 91 103 102
5 92 93 104
5 92 104 103
5 93 94 105
5 93 105 104
5 94 95 106
5 94 106 105
5 95 96 107
5 95 107 106
5 96 97 108
5 96 108 107
5 97 98 109
5 97 109 108
5 99 100 111
5 99 111 110
5 100 101 112
5 100 112 111
5 101 102 113
5 101 113 112
5 102 103 114
5 102 114 113
5 103 104 115
5 103 115 114
5 104 105 116
5 104 116 115
5 105 106 117
5 105 117 116
5 106 107 118
5 106 118 117
5 107 108 119
5 107 119 118
5 108 109 120
5 108 120 119
